<?xml version="1.0" encoding="utf-8"?>
<!-- Generator: Adobe Illustrator 24.0.1, SVG Export Plug-In . SVG Version: 6.00 Build 0)  -->
<svg version="1.1" xmlns="http://www.w3.org/2000/svg" xmlns:xlink="http://www.w3.org/1999/xlink" x="0px" y="0px"
	 viewBox="0 0 776 1051.88" style="enable-background:new 0 0 776 1051.88;" xml:space="preserve">
<style type="text/css">
	.st0{display:none;opacity:0.2;}
	.st1{display:inline;}
	.st2{clip-path:url(#SVGID_2_);}
	.st3{clip-path:url(#SVGID_4_);fill:#FFFFFF;}
	.st4{clip-path:url(#SVGID_6_);fill:#FFFFFF;}
	.st5{clip-path:url(#SVGID_6_);fill:none;stroke:#000000;stroke-width:1.6175;}
	.st6{clip-path:url(#SVGID_6_);fill:none;stroke:#000000;stroke-width:1.6175;stroke-miterlimit:10;}
	.st7{clip-path:url(#SVGID_8_);}
	.st8{clip-path:url(#SVGID_10_);}
	.st9{clip-path:url(#SVGID_12_);fill:#1A1A1A;}
	.st10{clip-path:url(#SVGID_12_);fill:#333333;}
	.st11{opacity:0.25;clip-path:url(#SVGID_12_);}
	.st12{clip-path:url(#SVGID_14_);}
	.st13{clip-path:url(#SVGID_16_);}
	.st14{clip-path:url(#SVGID_18_);}
	.st15{clip-path:url(#SVGID_20_);fill:#1A1A1A;}
	.st16{clip-path:url(#SVGID_20_);fill:#333333;}
	.st17{opacity:0.25;clip-path:url(#SVGID_20_);}
	.st18{clip-path:url(#SVGID_22_);}
	.st19{clip-path:url(#SVGID_24_);}
	.st20{clip-path:url(#SVGID_26_);}
	.st21{clip-path:url(#SVGID_28_);fill:#CCCCCC;}
	.st22{clip-path:url(#SVGID_28_);fill:#F7931E;}
	.st23{clip-path:url(#SVGID_28_);fill:#E6E6E6;}
	.st24{opacity:0.25;clip-path:url(#SVGID_28_);}
	.st25{clip-path:url(#SVGID_30_);}
	.st26{clip-path:url(#SVGID_32_);}
	.st27{clip-path:url(#SVGID_34_);}
	.st28{clip-path:url(#SVGID_36_);fill:#CCCCCC;}
	.st29{clip-path:url(#SVGID_36_);fill:#F7931E;}
	.st30{clip-path:url(#SVGID_36_);fill:#E6E6E6;}
	.st31{opacity:0.25;clip-path:url(#SVGID_36_);}
	.st32{clip-path:url(#SVGID_38_);}
	.st33{clip-path:url(#SVGID_40_);}
	.st34{clip-path:url(#SVGID_42_);fill:#4D4D4D;}
	.st35{clip-path:url(#SVGID_42_);}
	.st36{clip-path:url(#SVGID_44_);fill:#333333;}
	.st37{clip-path:url(#SVGID_44_);fill:#B3B3B3;}
	.st38{opacity:0.25;clip-path:url(#SVGID_44_);}
	.st39{clip-path:url(#SVGID_46_);}
	.st40{clip-path:url(#SVGID_48_);}
	.st41{clip-path:url(#SVGID_50_);fill:#4D4D4D;}
	.st42{clip-path:url(#SVGID_50_);}
	.st43{clip-path:url(#SVGID_52_);fill:#333333;}
	.st44{clip-path:url(#SVGID_52_);fill:#B3B3B3;}
	.st45{opacity:0.25;clip-path:url(#SVGID_52_);}
	.st46{clip-path:url(#SVGID_54_);}
	.st47{fill:#CCCCCC;}
	.st48{fill:#B3B3B3;}
	.st49{display:none;}
	.st50{fill:none;stroke:#000000;stroke-width:3;stroke-miterlimit:10;}
	.st51{stroke:#000000;stroke-width:3;stroke-miterlimit:10;}
	.st52{fill:#FFC353;}
	.st53{fill:#F7931E;}
	.st54{clip-path:url(#SVGID_56_);}
	.st55{opacity:0.7;clip-path:url(#SVGID_58_);}
	.st56{clip-path:url(#SVGID_62_);fill:#F7931E;}
	.st57{clip-path:url(#SVGID_62_);fill:#FFC353;}
	.st58{clip-path:url(#SVGID_64_);}
	.st59{clip-path:url(#SVGID_66_);fill:#F7931E;}
	.st60{clip-path:url(#SVGID_66_);fill:#FFC353;}
	.st61{clip-path:url(#SVGID_68_);}
	.st62{clip-path:url(#SVGID_70_);fill:#FFC353;}
	.st63{clip-path:url(#SVGID_70_);fill:#F7931E;}
	.st64{clip-path:url(#SVGID_72_);fill:#FFC353;}
	.st65{clip-path:url(#SVGID_72_);fill:#F7931E;}
</style>
<g id="Background" class="st0">
	<g class="st1">
		<g>
			<defs>
				<rect id="SVGID_1_" x="106" y="221.72" width="564" height="736.55"/>
			</defs>
			<clipPath id="SVGID_2_">
				<use xlink:href="#SVGID_1_"  style="overflow:visible;"/>
			</clipPath>
			<g class="st2">
				<defs>
					<rect id="SVGID_3_" x="106" y="221.72" width="564" height="736.49"/>
				</defs>
				<clipPath id="SVGID_4_">
					<use xlink:href="#SVGID_3_"  style="overflow:visible;"/>
				</clipPath>
				<rect x="106" y="221.72" class="st3" width="564" height="736.49"/>
			</g>
			<g class="st2">
				<defs>
					<rect id="SVGID_5_" x="106" y="221.72" width="564" height="732.84"/>
				</defs>
				<clipPath id="SVGID_6_">
					<use xlink:href="#SVGID_5_"  style="overflow:visible;"/>
				</clipPath>
				<rect x="122.5" y="224.46" class="st4" width="143.51" height="510.44"/>
				<rect x="122.5" y="224.46" class="st5" width="143.51" height="510.44"/>
				<rect x="524.34" y="224.46" class="st4" width="143.51" height="510.44"/>
				<rect x="524.34" y="224.46" class="st5" width="143.51" height="510.44"/>
				<rect x="108.15" y="516.14" class="st4" width="559.69" height="164.07"/>
				<rect x="108.15" y="516.14" class="st5" width="559.69" height="164.07"/>
				<rect x="309.07" y="680.2" class="st4" width="172.21" height="127.61"/>
				<rect x="309.07" y="680.2" class="st5" width="172.21" height="127.61"/>
				<rect x="352.12" y="789.58" class="st4" width="86.11" height="109.38"/>
				<rect x="352.12" y="789.58" class="st5" width="86.11" height="109.38"/>
				<rect x="309.07" y="844.27" class="st4" width="172.21" height="54.69"/>
				<rect x="309.07" y="844.27" class="st5" width="172.21" height="54.69"/>
				<polygon class="st4" points="481.28,898.96 446.84,953.65 343.51,953.65 309.07,898.96 				"/>
				<polygon class="st6" points="481.28,898.96 446.84,953.65 343.51,953.65 309.07,898.96 				"/>
			</g>
		</g>
	</g>
</g>
<g id="Ship">
	<g id="Intakes">
		<g id="Left">
			<g>
				<defs>
					<rect id="SVGID_7_" x="63" y="636" width="262" height="235"/>
				</defs>
				<clipPath id="SVGID_8_">
					<use xlink:href="#SVGID_7_"  style="overflow:visible;"/>
				</clipPath>
				<g class="st7">
					<defs>
						<rect id="SVGID_9_" x="63" y="636" width="262" height="235"/>
					</defs>
					<clipPath id="SVGID_10_">
						<use xlink:href="#SVGID_9_"  style="overflow:visible;"/>
					</clipPath>
					<g class="st8">
						<defs>
							<rect id="SVGID_11_" x="63" y="636" width="262" height="235"/>
						</defs>
						<clipPath id="SVGID_12_">
							<use xlink:href="#SVGID_11_"  style="overflow:visible;"/>
						</clipPath>
						<path class="st9" d="M138.76,730.29h110.48c0,0-10.79,29.96-19.89,29.96h-70.69C149.56,760.26,138.76,730.29,138.76,730.29"/>
						<polygon class="st10" points="191.6,751.31 194,745.35 196.4,751.31 195.55,760.26 192.45,760.26 						"/>
						<polygon class="st10" points="217.74,760.26 221.33,751.31 226.69,745.35 226.13,751.31 220.84,760.26 						"/>
						<polygon class="st10" points="161.31,745.35 166.67,751.31 170.26,760.26 167.16,760.26 161.87,751.31 						"/>
						<g class="st11">
							<g>
								<defs>
									<rect id="SVGID_13_" x="138.76" y="730.29" width="55.24" height="29.96"/>
								</defs>
								<clipPath id="SVGID_14_">
									<use xlink:href="#SVGID_13_"  style="overflow:visible;"/>
								</clipPath>
								<path class="st12" d="M138.76,730.29H194v29.96h-35.34C149.56,760.26,138.76,730.29,138.76,730.29"/>
							</g>
						</g>
					</g>
				</g>
			</g>
		</g>
		<g id="Right">
			<g>
				<defs>
					<rect id="SVGID_15_" x="451" y="636" width="262" height="235"/>
				</defs>
				<clipPath id="SVGID_16_">
					<use xlink:href="#SVGID_15_"  style="overflow:visible;"/>
				</clipPath>
				<g class="st13">
					<defs>
						<rect id="SVGID_17_" x="451" y="636" width="262" height="235"/>
					</defs>
					<clipPath id="SVGID_18_">
						<use xlink:href="#SVGID_17_"  style="overflow:visible;"/>
					</clipPath>
					<g class="st14">
						<defs>
							<rect id="SVGID_19_" x="451" y="636" width="262" height="235"/>
						</defs>
						<clipPath id="SVGID_20_">
							<use xlink:href="#SVGID_19_"  style="overflow:visible;"/>
						</clipPath>
						<path class="st15" d="M526.76,730.29h110.48c0,0-10.79,29.96-19.89,29.96h-70.69C537.56,760.26,526.76,730.29,526.76,730.29"
							/>
						<polygon class="st16" points="579.6,751.31 582,745.35 584.4,751.31 583.55,760.26 580.45,760.26 						"/>
						<polygon class="st16" points="605.74,760.26 609.33,751.31 614.69,745.35 614.14,751.31 608.84,760.26 						"/>
						<polygon class="st16" points="549.31,745.35 554.67,751.31 558.26,760.26 555.16,760.26 549.87,751.31 						"/>
						<g class="st17">
							<g>
								<defs>
									<rect id="SVGID_21_" x="526.76" y="730.29" width="55.24" height="29.96"/>
								</defs>
								<clipPath id="SVGID_22_">
									<use xlink:href="#SVGID_21_"  style="overflow:visible;"/>
								</clipPath>
								<path class="st18" d="M526.76,730.29H582v29.96h-35.34C537.56,760.26,526.76,730.29,526.76,730.29"/>
							</g>
						</g>
					</g>
				</g>
			</g>
		</g>
	</g>
	<g id="Thrusters">
		<g id="Left_1_">
			<g>
				<defs>
					<rect id="SVGID_23_" width="388" height="388"/>
				</defs>
				<clipPath id="SVGID_24_">
					<use xlink:href="#SVGID_23_"  style="overflow:visible;"/>
				</clipPath>
				<g class="st19">
					<defs>
						<rect id="SVGID_25_" width="388" height="388"/>
					</defs>
					<clipPath id="SVGID_26_">
						<use xlink:href="#SVGID_25_"  style="overflow:visible;"/>
					</clipPath>
					<g class="st20">
						<defs>
							<rect id="SVGID_27_" width="388" height="388"/>
						</defs>
						<clipPath id="SVGID_28_">
							<use xlink:href="#SVGID_27_"  style="overflow:visible;"/>
						</clipPath>
						<path class="st21" d="M117.7,151h152.6c0,0.01-0.01,0.01-0.01,0.01l-3.7,5.08l-34.41,47.23l-6.86,9.43l-13.66,18.75h-35.33
							l-13.66-18.75l-6.86-9.43l-34.41-47.23l-3.7-5.08L117.7,151z"/>
						<path class="st22" d="M237.29,188.54c-5.89,10.21-12.05,17.69-13.75,16.7c-1.7-0.98,1.7-10.05,7.59-20.26
							c5.89-10.21,12.05-17.69,13.75-16.7C246.59,169.26,243.19,178.33,237.29,188.54"/>
						<path class="st22" d="M218.42,179.62c-3.05,11.38-7.06,20.2-8.96,19.69c-1.9-0.51-0.96-10.15,2.09-21.53
							c3.05-11.38,7.06-20.2,8.96-19.69C222.41,158.6,221.47,168.24,218.42,179.62"/>
						<path class="st22" d="M197.88,175.9c0,11.79-1.59,21.34-3.56,21.34c-1.96,0-3.56-9.55-3.56-21.34
							c0-11.79,1.59-21.34,3.56-21.34C196.29,154.56,197.88,164.11,197.88,175.9"/>
						<path class="st22" d="M177.08,177.61c3.05,11.38,3.99,21.03,2.09,21.53c-1.9,0.51-5.91-8.31-8.96-19.69
							c-3.05-11.38-3.98-21.03-2.09-21.53C170.02,157.41,174.03,166.23,177.08,177.61"/>
						<path class="st22" d="M157.43,184.66c5.89,10.21,9.29,19.28,7.59,20.26c-1.7,0.98-7.86-6.5-13.75-16.7
							c-5.89-10.21-9.29-19.28-7.59-20.26C145.38,166.97,151.54,174.45,157.43,184.66"/>
						<path class="st23" d="M117.69,150.68c0-1.6,0.65-3.05,1.71-4.11c1.06-1.05,2.51-1.71,4.11-1.71h140.98
							c3.2,0,5.82,2.62,5.82,5.82c0,0.11,0,0.22-0.01,0.32c0,0.01-0.01,0.01-0.01,0.01c-0.08,1.47-0.72,2.79-1.69,3.78
							c-0.57,0.56-1.25,1.02-2,1.31c-0.65,0.26-1.36,0.4-2.11,0.4H123.51c-0.74,0-1.46-0.14-2.11-0.4c-2.07-0.8-3.57-2.77-3.7-5.08
							c0,0-0.01-0.01-0.01-0.01C117.69,150.9,117.69,150.79,117.69,150.68"/>
						<path class="st23" d="M154.56,206.94c0-1.36,0.47-2.61,1.26-3.61c0.14-0.17,0.28-0.34,0.45-0.5c0.98-0.98,2.3-1.61,3.76-1.69
							c0.12-0.01,0.23-0.01,0.36-0.01h67.25c0.38,0,0.74,0.04,1.1,0.1c1.39,0.27,2.61,1.03,3.46,2.11c0.79,1,1.26,2.24,1.26,3.61
							c0,1.6-0.65,3.05-1.71,4.11c-1.06,1.05-2.51,1.71-4.11,1.71h-67.25C157.17,212.76,154.56,210.14,154.56,206.94"/>
						<g class="st24">
							<g>
								<defs>
									<rect id="SVGID_29_" x="117.69" y="144.86" width="76.31" height="86.65"/>
								</defs>
								<clipPath id="SVGID_30_">
									<use xlink:href="#SVGID_29_"  style="overflow:visible;"/>
								</clipPath>
								<path class="st25" d="M117.69,150.68c0-1.6,0.65-3.05,1.71-4.11c1.06-1.05,2.51-1.71,4.11-1.71H194v86.65h-17.67
									l-13.66-18.75h-2.3c-3.2,0-5.82-2.62-5.82-5.82c0-1.36,0.47-2.61,1.26-3.61l-34.41-47.23c-2.07-0.8-3.57-2.77-3.7-5.08
									L117.7,151C117.69,150.9,117.69,150.79,117.69,150.68"/>
							</g>
						</g>
					</g>
				</g>
			</g>
		</g>
		<g id="Right_1_">
			<g>
				<defs>
					<rect id="SVGID_31_" x="388" y="0" width="388" height="388"/>
				</defs>
				<clipPath id="SVGID_32_">
					<use xlink:href="#SVGID_31_"  style="overflow:visible;"/>
				</clipPath>
				<g class="st26">
					<defs>
						<rect id="SVGID_33_" x="388" y="0" width="388" height="388"/>
					</defs>
					<clipPath id="SVGID_34_">
						<use xlink:href="#SVGID_33_"  style="overflow:visible;"/>
					</clipPath>
					<g class="st27">
						<defs>
							<rect id="SVGID_35_" x="388" y="0" width="388" height="388"/>
						</defs>
						<clipPath id="SVGID_36_">
							<use xlink:href="#SVGID_35_"  style="overflow:visible;"/>
						</clipPath>
						<path class="st28" d="M505.7,151h152.6c0,0.01-0.01,0.01-0.01,0.01l-3.7,5.08l-34.41,47.23l-6.86,9.43l-13.66,18.75h-35.33
							l-13.66-18.75l-6.86-9.43l-34.41-47.23l-3.7-5.08L505.7,151z"/>
						<path class="st29" d="M625.29,188.54c-5.89,10.21-12.05,17.69-13.75,16.7c-1.7-0.98,1.7-10.05,7.59-20.26
							c5.89-10.21,12.05-17.69,13.75-16.7C634.58,169.26,631.18,178.33,625.29,188.54"/>
						<path class="st29" d="M606.42,179.62c-3.05,11.38-7.06,20.2-8.96,19.69c-1.9-0.51-0.96-10.15,2.09-21.53
							c3.05-11.38,7.06-20.2,8.96-19.69C610.4,158.6,609.47,168.24,606.42,179.62"/>
						<path class="st29" d="M585.88,175.9c0,11.79-1.59,21.34-3.56,21.34c-1.96,0-3.56-9.55-3.56-21.34
							c0-11.79,1.59-21.34,3.56-21.34C584.29,154.56,585.88,164.11,585.88,175.9"/>
						<path class="st29" d="M565.07,177.61c3.05,11.38,3.99,21.03,2.09,21.53c-1.9,0.51-5.91-8.31-8.96-19.69
							c-3.05-11.38-3.98-21.03-2.09-21.53C558.01,157.41,562.02,166.23,565.07,177.61"/>
						<path class="st29" d="M545.43,184.66c5.89,10.21,9.29,19.28,7.59,20.26c-1.7,0.98-7.86-6.5-13.75-16.7
							c-5.89-10.21-9.29-19.28-7.59-20.26C533.38,166.97,539.53,174.45,545.43,184.66"/>
						<path class="st30" d="M505.69,150.68c0-1.6,0.65-3.05,1.71-4.11c1.06-1.05,2.51-1.71,4.11-1.71h140.98
							c3.2,0,5.82,2.62,5.82,5.82c0,0.11,0,0.22-0.01,0.32c0,0.01-0.01,0.01-0.01,0.01c-0.08,1.47-0.72,2.79-1.69,3.78
							c-0.57,0.56-1.25,1.02-2,1.31c-0.65,0.26-1.36,0.4-2.11,0.4H511.51c-0.74,0-1.46-0.14-2.11-0.4c-2.07-0.8-3.57-2.77-3.7-5.08
							c0,0-0.01-0.01-0.01-0.01C505.69,150.9,505.69,150.79,505.69,150.68"/>
						<path class="st30" d="M542.55,206.94c0-1.36,0.47-2.61,1.26-3.61c0.14-0.17,0.28-0.34,0.45-0.5c0.98-0.98,2.3-1.61,3.76-1.69
							c0.12-0.01,0.23-0.01,0.36-0.01h67.25c0.38,0,0.74,0.04,1.1,0.1c1.39,0.27,2.61,1.03,3.46,2.11c0.79,1,1.26,2.24,1.26,3.61
							c0,1.6-0.65,3.05-1.71,4.11c-1.06,1.05-2.51,1.71-4.11,1.71h-67.25C545.17,212.76,542.55,210.14,542.55,206.94"/>
						<g class="st31">
							<g>
								<defs>
									<rect id="SVGID_37_" x="505.69" y="144.86" width="76.31" height="86.65"/>
								</defs>
								<clipPath id="SVGID_38_">
									<use xlink:href="#SVGID_37_"  style="overflow:visible;"/>
								</clipPath>
								<path class="st32" d="M505.69,150.68c0-1.6,0.65-3.05,1.71-4.11c1.06-1.05,2.51-1.71,4.11-1.71H582v86.65h-17.67
									l-13.66-18.75h-2.3c-3.2,0-5.82-2.62-5.82-5.82c0-1.36,0.47-2.61,1.26-3.61l-34.41-47.23c-2.07-0.8-3.57-2.77-3.7-5.08
									L505.7,151C505.69,150.9,505.69,150.79,505.69,150.68"/>
							</g>
						</g>
					</g>
				</g>
			</g>
		</g>
	</g>
	<g id="Guns">
		<g id="Left_2_">
			<g>
				<defs>
					<rect id="SVGID_39_" x="213" y="829" width="208.39" height="222.88"/>
				</defs>
				<clipPath id="SVGID_40_">
					<use xlink:href="#SVGID_39_"  style="overflow:visible;"/>
				</clipPath>
				<g class="st33">
					<defs>
						<rect id="SVGID_41_" x="213" y="829" width="208.39" height="222.88"/>
					</defs>
					<clipPath id="SVGID_42_">
						<use xlink:href="#SVGID_41_"  style="overflow:visible;"/>
					</clipPath>
					<rect x="309.9" y="886.58" class="st34" width="14.59" height="107.73"/>
					<g class="st35">
						<defs>
							<rect id="SVGID_43_" x="213" y="829" width="208.39" height="222.88"/>
						</defs>
						<clipPath id="SVGID_44_">
							<use xlink:href="#SVGID_43_"  style="overflow:visible;"/>
						</clipPath>
						<path class="st36" d="M322.9,988.73c0-1.03,0.51-1.86,1.14-1.86c0.16,0,0.31,0.05,0.45,0.15l0,3.42
							c-0.14,0.1-0.29,0.15-0.45,0.15c-0.37,0-0.7-0.29-0.91-0.74C322.99,989.54,322.9,989.15,322.9,988.73"/>
						<path class="st36" d="M318.34,988.73c0-1.03,0.51-1.86,1.14-1.86c0.63,0,1.14,0.83,1.14,1.86s-0.51,1.86-1.14,1.86
							C318.85,990.59,318.34,989.76,318.34,988.73"/>
						<path class="st36" d="M313.77,988.73c0-1.03,0.51-1.86,1.14-1.86c0.63,0,1.14,0.83,1.14,1.86s-0.51,1.86-1.14,1.86
							C314.28,990.59,313.77,989.76,313.77,988.73"/>
						<path class="st36" d="M309.9,990.44v-3.42c0.14-0.1,0.29-0.15,0.45-0.15c0.63,0,1.14,0.83,1.14,1.86
							c0,0.42-0.09,0.81-0.23,1.11c-0.21,0.45-0.54,0.74-0.91,0.74C310.19,990.59,310.04,990.54,309.9,990.44"/>
						<path class="st36" d="M322.9,981.3c0-1.03,0.51-1.86,1.14-1.86c0.16,0,0.31,0.05,0.45,0.15v3.42
							c-0.14,0.1-0.29,0.15-0.45,0.15C323.41,983.16,322.9,982.33,322.9,981.3"/>
						<path class="st36" d="M318.34,981.3c0-1.03,0.51-1.86,1.14-1.86c0.63,0,1.14,0.83,1.14,1.86s-0.51,1.86-1.14,1.86
							C318.85,983.16,318.34,982.33,318.34,981.3"/>
						<path class="st36" d="M313.77,981.3c0-1.03,0.51-1.86,1.14-1.86c0.63,0,1.14,0.83,1.14,1.86s-0.51,1.86-1.14,1.86
							C314.28,983.16,313.77,982.33,313.77,981.3"/>
						<path class="st36" d="M309.9,983.01v-3.42c0.14-0.1,0.29-0.15,0.45-0.15c0.63,0,1.14,0.83,1.14,1.86s-0.51,1.86-1.14,1.86
							C310.19,983.16,310.04,983.11,309.9,983.01"/>
						<path class="st36" d="M322.9,973.87c0-1.03,0.51-1.86,1.14-1.86c0.16,0,0.31,0.05,0.45,0.15v3.42
							c-0.14,0.1-0.29,0.15-0.45,0.15C323.41,975.73,322.9,974.9,322.9,973.87"/>
						<path class="st36" d="M318.34,973.87c0-1.03,0.51-1.86,1.14-1.86c0.63,0,1.14,0.83,1.14,1.86s-0.51,1.86-1.14,1.86
							C318.85,975.73,318.34,974.9,318.34,973.87"/>
						<path class="st36" d="M313.77,973.87c0-1.03,0.51-1.86,1.14-1.86c0.63,0,1.14,0.83,1.14,1.86s-0.51,1.86-1.14,1.86
							C314.28,975.73,313.77,974.9,313.77,973.87"/>
						<path class="st36" d="M309.9,975.58v-3.42c0.14-0.1,0.29-0.15,0.45-0.15c0.63,0,1.14,0.83,1.14,1.86
							c0,1.03-0.51,1.86-1.14,1.86C310.19,975.73,310.04,975.68,309.9,975.58"/>
						<path class="st36" d="M322.9,966.44c0-1.03,0.51-1.86,1.14-1.86c0.16,0,0.31,0.05,0.45,0.15v3.42
							c-0.14,0.1-0.29,0.15-0.45,0.15C323.41,968.3,322.9,967.47,322.9,966.44"/>
						<path class="st36" d="M318.34,966.44c0-1.03,0.51-1.86,1.14-1.86c0.63,0,1.14,0.83,1.14,1.86s-0.51,1.86-1.14,1.86
							C318.85,968.3,318.34,967.47,318.34,966.44"/>
						<path class="st36" d="M313.77,966.44c0-1.03,0.51-1.86,1.14-1.86c0.63,0,1.14,0.83,1.14,1.86s-0.51,1.86-1.14,1.86
							C314.28,968.3,313.77,967.47,313.77,966.44"/>
						<path class="st36" d="M309.9,968.15v-3.42c0.14-0.1,0.29-0.15,0.45-0.15c0.63,0,1.14,0.83,1.14,1.86s-0.51,1.86-1.14,1.86
							C310.19,968.3,310.04,968.25,309.9,968.15"/>
						<path class="st36" d="M322.9,959.01c0-1.03,0.51-1.86,1.14-1.86c0.16,0,0.31,0.05,0.45,0.15v3.42
							c-0.14,0.1-0.29,0.15-0.45,0.15C323.41,960.87,322.9,960.04,322.9,959.01"/>
						<path class="st36" d="M318.34,959.01c0-1.03,0.51-1.86,1.14-1.86c0.63,0,1.14,0.83,1.14,1.86s-0.51,1.86-1.14,1.86
							C318.85,960.87,318.34,960.04,318.34,959.01"/>
						<path class="st36" d="M313.77,959.01c0-1.03,0.51-1.86,1.14-1.86c0.63,0,1.14,0.83,1.14,1.86s-0.51,1.86-1.14,1.86
							C314.28,960.87,313.77,960.04,313.77,959.01"/>
						<path class="st36" d="M309.9,960.72v-3.42c0.14-0.1,0.29-0.15,0.45-0.15c0.63,0,1.14,0.83,1.14,1.86
							c0,1.03-0.51,1.86-1.14,1.86C310.19,960.87,310.04,960.82,309.9,960.72"/>
						<path class="st36" d="M322.9,951.59c0-1.03,0.51-1.86,1.14-1.86c0.16,0,0.31,0.05,0.45,0.15v3.42
							c-0.14,0.1-0.29,0.15-0.45,0.15C323.41,953.44,322.9,952.61,322.9,951.59"/>
						<path class="st36" d="M318.34,951.59c0-1.03,0.51-1.86,1.14-1.86c0.63,0,1.14,0.83,1.14,1.86c0,1.03-0.51,1.86-1.14,1.86
							C318.85,953.44,318.34,952.61,318.34,951.59"/>
						<path class="st36" d="M313.77,951.59c0-1.03,0.51-1.86,1.14-1.86c0.63,0,1.14,0.83,1.14,1.86c0,1.03-0.51,1.86-1.14,1.86
							C314.28,953.44,313.77,952.61,313.77,951.59"/>
						<path class="st36" d="M309.9,953.29v-3.42c0.14-0.1,0.29-0.15,0.45-0.15c0.63,0,1.14,0.83,1.14,1.86s-0.51,1.86-1.14,1.86
							C310.19,953.44,310.04,953.39,309.9,953.29"/>
						<path class="st36" d="M322.9,944.16c0-1.03,0.51-1.86,1.14-1.86c0.16,0,0.31,0.05,0.45,0.15v3.42
							c-0.14,0.1-0.29,0.15-0.45,0.15C323.41,946.01,322.9,945.18,322.9,944.16"/>
						<path class="st36" d="M318.34,944.16c0-1.03,0.51-1.86,1.14-1.86c0.63,0,1.14,0.83,1.14,1.86s-0.51,1.86-1.14,1.86
							C318.85,946.01,318.34,945.18,318.34,944.16"/>
						<path class="st36" d="M313.77,944.16c0-1.03,0.51-1.86,1.14-1.86c0.63,0,1.14,0.83,1.14,1.86s-0.51,1.86-1.14,1.86
							C314.28,946.01,313.77,945.18,313.77,944.16"/>
						<path class="st36" d="M309.9,945.86v-3.42c0.14-0.1,0.29-0.15,0.45-0.15c0.63,0,1.14,0.83,1.14,1.86
							c0,1.03-0.51,1.86-1.14,1.86C310.19,946.01,310.04,945.96,309.9,945.86"/>
						<path class="st36" d="M322.9,936.73c0-1.03,0.51-1.86,1.14-1.86c0.16,0,0.31,0.05,0.45,0.15v3.42
							c-0.14,0.1-0.29,0.15-0.45,0.15C323.41,938.58,322.9,937.75,322.9,936.73"/>
						<path class="st36" d="M318.34,936.73c0-1.03,0.51-1.86,1.14-1.86c0.63,0,1.14,0.83,1.14,1.86s-0.51,1.86-1.14,1.86
							C318.85,938.58,318.34,937.75,318.34,936.73"/>
						<path class="st36" d="M313.77,936.73c0-1.03,0.51-1.86,1.14-1.86c0.63,0,1.14,0.83,1.14,1.86s-0.51,1.86-1.14,1.86
							C314.28,938.58,313.77,937.75,313.77,936.73"/>
						<path class="st36" d="M309.9,938.44v-3.42c0.14-0.1,0.29-0.15,0.45-0.15c0.63,0,1.14,0.83,1.14,1.86
							c0,1.03-0.51,1.86-1.14,1.86C310.19,938.58,310.04,938.53,309.9,938.44"/>
						<path class="st36" d="M322.9,929.3c0-1.03,0.51-1.86,1.14-1.86c0.16,0,0.31,0.05,0.45,0.15v3.42
							c-0.14,0.1-0.29,0.15-0.45,0.15C323.41,931.15,322.9,930.32,322.9,929.3"/>
						<path class="st36" d="M318.34,929.3c0-1.03,0.51-1.86,1.14-1.86c0.63,0,1.14,0.83,1.14,1.86s-0.51,1.86-1.14,1.86
							C318.85,931.15,318.34,930.32,318.34,929.3"/>
						<path class="st36" d="M313.77,929.3c0-1.03,0.51-1.86,1.14-1.86c0.63,0,1.14,0.83,1.14,1.86s-0.51,1.86-1.14,1.86
							C314.28,931.15,313.77,930.32,313.77,929.3"/>
						<path class="st36" d="M309.9,931.01v-3.42c0.14-0.1,0.29-0.15,0.45-0.15c0.63,0,1.14,0.83,1.14,1.86
							c0,1.03-0.51,1.86-1.14,1.86C310.19,931.15,310.04,931.1,309.9,931.01"/>
						<path class="st36" d="M322.9,921.87c0-1.03,0.51-1.86,1.14-1.86c0.16,0,0.31,0.05,0.45,0.15v3.42
							c-0.14,0.1-0.29,0.15-0.45,0.15C323.41,923.73,322.9,922.89,322.9,921.87"/>
						<path class="st36" d="M318.34,921.87c0-1.03,0.51-1.86,1.14-1.86c0.63,0,1.14,0.83,1.14,1.86s-0.51,1.86-1.14,1.86
							C318.85,923.73,318.34,922.89,318.34,921.87"/>
						<path class="st36" d="M313.77,921.87c0-1.03,0.51-1.86,1.14-1.86c0.63,0,1.14,0.83,1.14,1.86s-0.51,1.86-1.14,1.86
							C314.28,923.73,313.77,922.89,313.77,921.87"/>
						<path class="st36" d="M309.9,923.58v-3.42c0.14-0.1,0.29-0.15,0.45-0.15c0.63,0,1.14,0.83,1.14,1.86
							c0,1.03-0.51,1.86-1.14,1.86C310.19,923.72,310.04,923.67,309.9,923.58"/>
						<path class="st36" d="M322.9,914.44c0-1.03,0.51-1.86,1.14-1.86c0.16,0,0.31,0.05,0.45,0.15v3.42
							c-0.14,0.1-0.29,0.15-0.45,0.15C323.41,916.3,322.9,915.46,322.9,914.44"/>
						<path class="st36" d="M318.34,914.44c0-1.03,0.51-1.86,1.14-1.86s1.14,0.83,1.14,1.86s-0.51,1.86-1.14,1.86
							C318.85,916.3,318.34,915.46,318.34,914.44"/>
						<path class="st36" d="M313.77,914.44c0-1.03,0.51-1.86,1.14-1.86c0.63,0,1.14,0.83,1.14,1.86s-0.51,1.86-1.14,1.86
							C314.28,916.3,313.77,915.46,313.77,914.44"/>
						<path class="st36" d="M309.9,916.15v-3.42c0.14-0.1,0.29-0.15,0.45-0.15c0.63,0,1.14,0.83,1.14,1.86
							c0,1.03-0.51,1.86-1.14,1.86C310.19,916.3,310.04,916.24,309.9,916.15"/>
						<path class="st36" d="M322.9,907.01c0-1.03,0.51-1.86,1.14-1.86c0.16,0,0.31,0.05,0.45,0.15v3.42
							c-0.14,0.1-0.29,0.15-0.45,0.15C323.41,908.87,322.9,908.03,322.9,907.01"/>
						<path class="st36" d="M318.34,907.01c0-1.03,0.51-1.86,1.14-1.86c0.63,0,1.14,0.83,1.14,1.86s-0.51,1.86-1.14,1.86
							C318.85,908.87,318.34,908.03,318.34,907.01"/>
						<path class="st36" d="M313.77,907.01c0-1.03,0.51-1.86,1.14-1.86c0.63,0,1.14,0.83,1.14,1.86s-0.51,1.86-1.14,1.86
							C314.28,908.87,313.77,908.03,313.77,907.01"/>
						<path class="st36" d="M309.9,908.72l0-3.42c0.14-0.1,0.29-0.15,0.45-0.15c0.63,0,1.14,0.83,1.14,1.86
							c0,1.03-0.51,1.86-1.14,1.86C310.19,908.87,310.04,908.81,309.9,908.72"/>
						<path class="st36" d="M322.9,899.58c0-1.03,0.51-1.86,1.14-1.86c0.16,0,0.31,0.05,0.45,0.15l0,3.42
							c-0.14,0.1-0.29,0.15-0.45,0.15C323.41,901.44,322.9,900.6,322.9,899.58"/>
						<path class="st36" d="M318.34,899.58c0-1.03,0.51-1.86,1.14-1.86c0.63,0,1.14,0.83,1.14,1.86s-0.51,1.86-1.14,1.86
							C318.85,901.44,318.34,900.61,318.34,899.58"/>
						<path class="st36" d="M313.77,899.58c0-1.03,0.51-1.86,1.14-1.86c0.63,0,1.14,0.83,1.14,1.86s-0.51,1.86-1.14,1.86
							C314.28,901.44,313.77,900.61,313.77,899.58"/>
						<path class="st36" d="M309.9,901.29v-3.42c0.14-0.1,0.29-0.15,0.45-0.15c0.63,0,1.14,0.83,1.14,1.86
							c0,1.03-0.51,1.86-1.14,1.86C310.19,901.44,310.04,901.39,309.9,901.29"/>
						<path class="st36" d="M322.9,892.15c0-0.42,0.09-0.81,0.23-1.11c0.21-0.45,0.54-0.74,0.91-0.74c0.16,0,0.31,0.05,0.45,0.15
							v3.42c-0.14,0.1-0.29,0.15-0.45,0.15C323.41,894.01,322.9,893.18,322.9,892.15"/>
						<path class="st36" d="M318.34,892.15c0-1.03,0.51-1.86,1.14-1.86c0.63,0,1.14,0.83,1.14,1.86s-0.51,1.86-1.14,1.86
							C318.85,894.01,318.34,893.18,318.34,892.15"/>
						<path class="st36" d="M313.77,892.15c0-1.03,0.51-1.86,1.14-1.86c0.63,0,1.14,0.83,1.14,1.86s-0.51,1.86-1.14,1.86
							C314.28,894.01,313.77,893.18,313.77,892.15"/>
						<path class="st36" d="M309.9,893.86v-3.42c0.14-0.1,0.29-0.15,0.45-0.15c0.37,0,0.7,0.29,0.91,0.74
							c0.14,0.31,0.23,0.7,0.23,1.11c0,1.03-0.51,1.86-1.14,1.86C310.19,894.01,310.04,893.96,309.9,893.86"/>
						<rect x="309.9" y="989.85" class="st37" width="14.59" height="4.46"/>
						<rect x="309.9" y="886.58" class="st37" width="14.59" height="4.46"/>
						<polygon class="st37" points="308.57,1005.94 314.86,994.3 317.2,989.97 319.54,994.3 325.82,1005.94 						"/>
						<g class="st38">
							<g>
								<defs>
									<rect id="SVGID_45_" x="308.57" y="886.58" width="8.62" height="119.36"/>
								</defs>
								<clipPath id="SVGID_46_">
									<use xlink:href="#SVGID_45_"  style="overflow:visible;"/>
								</clipPath>
								<polygon class="st39" points="314.86,994.3 309.9,994.3 309.9,886.58 317.2,886.58 317.2,1005.94 308.57,1005.94 								
									"/>
							</g>
						</g>
					</g>
				</g>
			</g>
		</g>
		<g id="Right_2_">
			<g>
				<defs>
					<rect id="SVGID_47_" x="354.61" y="829" width="208.39" height="222.88"/>
				</defs>
				<clipPath id="SVGID_48_">
					<use xlink:href="#SVGID_47_"  style="overflow:visible;"/>
				</clipPath>
				<g class="st40">
					<defs>
						<rect id="SVGID_49_" x="354.61" y="829" width="208.39" height="222.88"/>
					</defs>
					<clipPath id="SVGID_50_">
						<use xlink:href="#SVGID_49_"  style="overflow:visible;"/>
					</clipPath>
					<rect x="451.51" y="886.58" class="st41" width="14.59" height="107.73"/>
					<g class="st42">
						<defs>
							<rect id="SVGID_51_" x="354.61" y="829" width="208.39" height="222.88"/>
						</defs>
						<clipPath id="SVGID_52_">
							<use xlink:href="#SVGID_51_"  style="overflow:visible;"/>
						</clipPath>
						<path class="st43" d="M464.51,988.73c0-1.03,0.51-1.86,1.14-1.86c0.16,0,0.31,0.05,0.45,0.15v3.42
							c-0.14,0.1-0.29,0.15-0.45,0.15c-0.37,0-0.7-0.29-0.91-0.74C464.6,989.54,464.51,989.15,464.51,988.73"/>
						<path class="st43" d="M459.94,988.73c0-1.03,0.51-1.86,1.14-1.86c0.63,0,1.14,0.83,1.14,1.86s-0.51,1.86-1.14,1.86
							C460.45,990.59,459.94,989.76,459.94,988.73"/>
						<path class="st43" d="M455.38,988.73c0-1.03,0.51-1.86,1.14-1.86c0.63,0,1.14,0.83,1.14,1.86s-0.51,1.86-1.14,1.86
							C455.89,990.59,455.38,989.76,455.38,988.73"/>
						<path class="st43" d="M451.51,990.44v-3.42c0.14-0.1,0.29-0.15,0.45-0.15c0.63,0,1.14,0.83,1.14,1.86
							c0,0.42-0.09,0.81-0.23,1.11c-0.21,0.45-0.54,0.74-0.91,0.74C451.8,990.59,451.65,990.54,451.51,990.44"/>
						<path class="st43" d="M464.51,981.3c0-1.03,0.51-1.86,1.14-1.86c0.16,0,0.31,0.05,0.45,0.15v3.42
							c-0.14,0.1-0.29,0.15-0.45,0.15C465.02,983.16,464.51,982.33,464.51,981.3"/>
						<path class="st43" d="M459.94,981.3c0-1.03,0.51-1.86,1.14-1.86c0.63,0,1.14,0.83,1.14,1.86s-0.51,1.86-1.14,1.86
							C460.45,983.16,459.94,982.33,459.94,981.3"/>
						<path class="st43" d="M455.38,981.3c0-1.03,0.51-1.86,1.14-1.86c0.63,0,1.14,0.83,1.14,1.86s-0.51,1.86-1.14,1.86
							C455.89,983.16,455.38,982.33,455.38,981.3"/>
						<path class="st43" d="M451.51,983.01v-3.42c0.14-0.1,0.29-0.15,0.45-0.15c0.63,0,1.14,0.83,1.14,1.86s-0.51,1.86-1.14,1.86
							C451.8,983.16,451.65,983.11,451.51,983.01"/>
						<path class="st43" d="M464.51,973.87c0-1.03,0.51-1.86,1.14-1.86c0.16,0,0.31,0.05,0.45,0.15v3.42
							c-0.14,0.1-0.29,0.15-0.45,0.15C465.02,975.73,464.51,974.9,464.51,973.87"/>
						<path class="st43" d="M459.94,973.87c0-1.03,0.51-1.86,1.14-1.86c0.63,0,1.14,0.83,1.14,1.86s-0.51,1.86-1.14,1.86
							C460.45,975.73,459.94,974.9,459.94,973.87"/>
						<path class="st43" d="M455.38,973.87c0-1.03,0.51-1.86,1.14-1.86c0.63,0,1.14,0.83,1.14,1.86s-0.51,1.86-1.14,1.86
							C455.89,975.73,455.38,974.9,455.38,973.87"/>
						<path class="st43" d="M451.51,975.58v-3.42c0.14-0.1,0.29-0.15,0.45-0.15c0.63,0,1.14,0.83,1.14,1.86
							c0,1.03-0.51,1.86-1.14,1.86C451.8,975.73,451.65,975.68,451.51,975.58"/>
						<path class="st43" d="M464.51,966.44c0-1.03,0.51-1.86,1.14-1.86c0.16,0,0.31,0.05,0.45,0.15v3.42
							c-0.14,0.1-0.29,0.15-0.45,0.15C465.02,968.3,464.51,967.47,464.51,966.44"/>
						<path class="st43" d="M459.94,966.44c0-1.03,0.51-1.86,1.14-1.86c0.63,0,1.14,0.83,1.14,1.86s-0.51,1.86-1.14,1.86
							C460.45,968.3,459.94,967.47,459.94,966.44"/>
						<path class="st43" d="M455.38,966.44c0-1.03,0.51-1.86,1.14-1.86c0.63,0,1.14,0.83,1.14,1.86s-0.51,1.86-1.14,1.86
							C455.89,968.3,455.38,967.47,455.38,966.44"/>
						<path class="st43" d="M451.51,968.15v-3.42c0.14-0.1,0.29-0.15,0.45-0.15c0.63,0,1.14,0.83,1.14,1.86s-0.51,1.86-1.14,1.86
							C451.8,968.3,451.65,968.25,451.51,968.15"/>
						<path class="st43" d="M464.51,959.01c0-1.03,0.51-1.86,1.14-1.86c0.16,0,0.31,0.05,0.45,0.15v3.42
							c-0.14,0.1-0.29,0.15-0.45,0.15C465.02,960.87,464.51,960.04,464.51,959.01"/>
						<path class="st43" d="M459.94,959.01c0-1.03,0.51-1.86,1.14-1.86c0.63,0,1.14,0.83,1.14,1.86s-0.51,1.86-1.14,1.86
							C460.45,960.87,459.94,960.04,459.94,959.01"/>
						<path class="st43" d="M455.38,959.01c0-1.03,0.51-1.86,1.14-1.86c0.63,0,1.14,0.83,1.14,1.86s-0.51,1.86-1.14,1.86
							C455.89,960.87,455.38,960.04,455.38,959.01"/>
						<path class="st43" d="M451.51,960.72v-3.42c0.14-0.1,0.29-0.15,0.45-0.15c0.63,0,1.14,0.83,1.14,1.86s-0.51,1.86-1.14,1.86
							C451.8,960.87,451.65,960.82,451.51,960.72"/>
						<path class="st43" d="M464.51,951.58c0-1.03,0.51-1.86,1.14-1.86c0.16,0,0.31,0.05,0.45,0.15v3.42
							c-0.14,0.1-0.29,0.15-0.45,0.15C465.02,953.44,464.51,952.61,464.51,951.58"/>
						<path class="st43" d="M459.94,951.58c0-1.03,0.51-1.86,1.14-1.86c0.63,0,1.14,0.83,1.14,1.86s-0.51,1.86-1.14,1.86
							C460.45,953.44,459.94,952.61,459.94,951.58"/>
						<path class="st43" d="M455.38,951.58c0-1.03,0.51-1.86,1.14-1.86c0.63,0,1.14,0.83,1.14,1.86s-0.51,1.86-1.14,1.86
							C455.89,953.44,455.38,952.61,455.38,951.58"/>
						<path class="st43" d="M451.51,953.29v-3.42c0.14-0.1,0.29-0.15,0.45-0.15c0.63,0,1.14,0.83,1.14,1.86
							c0,1.03-0.51,1.86-1.14,1.86C451.8,953.44,451.65,953.39,451.51,953.29"/>
						<path class="st43" d="M464.51,944.15c0-1.03,0.51-1.86,1.14-1.86c0.16,0,0.31,0.05,0.45,0.15v3.42
							c-0.14,0.1-0.29,0.15-0.45,0.15C465.02,946.01,464.51,945.18,464.51,944.15"/>
						<path class="st43" d="M459.94,944.15c0-1.03,0.51-1.86,1.14-1.86c0.63,0,1.14,0.83,1.14,1.86s-0.51,1.86-1.14,1.86
							C460.45,946.01,459.94,945.18,459.94,944.15"/>
						<path class="st43" d="M455.38,944.15c0-1.03,0.51-1.86,1.14-1.86c0.63,0,1.14,0.83,1.14,1.86s-0.51,1.86-1.14,1.86
							C455.89,946.01,455.38,945.18,455.38,944.15"/>
						<path class="st43" d="M451.51,945.86v-3.42c0.14-0.1,0.29-0.15,0.45-0.15c0.63,0,1.14,0.83,1.14,1.86s-0.51,1.86-1.14,1.86
							C451.8,946.01,451.65,945.96,451.51,945.86"/>
						<path class="st43" d="M464.51,936.73c0-1.03,0.51-1.86,1.14-1.86c0.16,0,0.31,0.05,0.45,0.15v3.42
							c-0.14,0.1-0.29,0.15-0.45,0.15C465.02,938.58,464.51,937.75,464.51,936.73"/>
						<path class="st43" d="M459.94,936.73c0-1.03,0.51-1.86,1.14-1.86c0.63,0,1.14,0.83,1.14,1.86s-0.51,1.86-1.14,1.86
							C460.45,938.58,459.94,937.75,459.94,936.73"/>
						<path class="st43" d="M455.38,936.73c0-1.03,0.51-1.86,1.14-1.86c0.63,0,1.14,0.83,1.14,1.86s-0.51,1.86-1.14,1.86
							C455.89,938.58,455.38,937.75,455.38,936.73"/>
						<path class="st43" d="M451.51,938.43v-3.42c0.14-0.1,0.29-0.15,0.45-0.15c0.63,0,1.14,0.83,1.14,1.86
							c0,1.03-0.51,1.86-1.14,1.86C451.8,938.58,451.65,938.53,451.51,938.43"/>
						<path class="st43" d="M464.51,929.3c0-1.03,0.51-1.86,1.14-1.86c0.16,0,0.31,0.05,0.45,0.15V931
							c-0.14,0.1-0.29,0.15-0.45,0.15C465.02,931.15,464.51,930.32,464.51,929.3"/>
						<path class="st43" d="M459.94,929.3c0-1.03,0.51-1.86,1.14-1.86c0.63,0,1.14,0.83,1.14,1.86c0,1.03-0.51,1.86-1.14,1.86
							C460.45,931.15,459.94,930.32,459.94,929.3"/>
						<path class="st43" d="M455.38,929.3c0-1.03,0.51-1.86,1.14-1.86c0.63,0,1.14,0.83,1.14,1.86c0,1.03-0.51,1.86-1.14,1.86
							C455.89,931.15,455.38,930.32,455.38,929.3"/>
						<path class="st43" d="M451.51,931v-3.42c0.14-0.1,0.29-0.15,0.45-0.15c0.63,0,1.14,0.83,1.14,1.86c0,1.03-0.51,1.86-1.14,1.86
							C451.8,931.15,451.65,931.1,451.51,931"/>
						<path class="st43" d="M464.51,921.87c0-1.03,0.51-1.86,1.14-1.86c0.16,0,0.31,0.05,0.45,0.15v3.42
							c-0.14,0.1-0.29,0.15-0.45,0.15C465.02,923.72,464.51,922.89,464.51,921.87"/>
						<path class="st43" d="M459.94,921.87c0-1.03,0.51-1.86,1.14-1.86c0.63,0,1.14,0.83,1.14,1.86s-0.51,1.86-1.14,1.86
							C460.45,923.72,459.94,922.89,459.94,921.87"/>
						<path class="st43" d="M455.38,921.87c0-1.03,0.51-1.86,1.14-1.86c0.63,0,1.14,0.83,1.14,1.86s-0.51,1.86-1.14,1.86
							C455.89,923.72,455.38,922.89,455.38,921.87"/>
						<path class="st43" d="M451.51,923.58v-3.42c0.14-0.1,0.29-0.15,0.45-0.15c0.63,0,1.14,0.83,1.14,1.86
							c0,1.03-0.51,1.86-1.14,1.86C451.8,923.72,451.65,923.67,451.51,923.58"/>
						<path class="st43" d="M464.51,914.44c0-1.03,0.51-1.86,1.14-1.86c0.16,0,0.31,0.05,0.45,0.15v3.42
							c-0.14,0.1-0.29,0.15-0.45,0.15C465.02,916.29,464.51,915.46,464.51,914.44"/>
						<path class="st43" d="M459.94,914.44c0-1.03,0.51-1.86,1.14-1.86c0.63,0,1.14,0.83,1.14,1.86s-0.51,1.86-1.14,1.86
							C460.45,916.29,459.94,915.46,459.94,914.44"/>
						<path class="st43" d="M455.38,914.44c0-1.03,0.51-1.86,1.14-1.86c0.63,0,1.14,0.83,1.14,1.86s-0.51,1.86-1.14,1.86
							C455.89,916.29,455.38,915.46,455.38,914.44"/>
						<path class="st43" d="M451.51,916.15v-3.42c0.14-0.1,0.29-0.15,0.45-0.15c0.63,0,1.14,0.83,1.14,1.86
							c0,1.03-0.51,1.86-1.14,1.86C451.8,916.29,451.65,916.24,451.51,916.15"/>
						<path class="st43" d="M464.51,907.01c0-1.03,0.51-1.86,1.14-1.86c0.16,0,0.31,0.05,0.45,0.15v3.42
							c-0.14,0.1-0.29,0.15-0.45,0.15C465.02,908.87,464.51,908.03,464.51,907.01"/>
						<path class="st43" d="M459.94,907.01c0-1.03,0.51-1.86,1.14-1.86c0.63,0,1.14,0.83,1.14,1.86s-0.51,1.86-1.14,1.86
							C460.45,908.87,459.94,908.03,459.94,907.01"/>
						<path class="st43" d="M455.38,907.01c0-1.03,0.51-1.86,1.14-1.86c0.63,0,1.14,0.83,1.14,1.86s-0.51,1.86-1.14,1.86
							C455.89,908.87,455.38,908.03,455.38,907.01"/>
						<path class="st43" d="M451.51,908.72v-3.42c0.14-0.1,0.29-0.15,0.45-0.15c0.63,0,1.14,0.83,1.14,1.86
							c0,1.03-0.51,1.86-1.14,1.86C451.8,908.86,451.65,908.81,451.51,908.72"/>
						<path class="st43" d="M464.51,899.58c0-1.03,0.51-1.86,1.14-1.86c0.16,0,0.31,0.05,0.45,0.15v3.42
							c-0.14,0.1-0.29,0.15-0.45,0.15C465.02,901.44,464.51,900.6,464.51,899.58"/>
						<path class="st43" d="M459.94,899.58c0-1.03,0.51-1.86,1.14-1.86c0.63,0,1.14,0.83,1.14,1.86s-0.51,1.86-1.14,1.86
							C460.45,901.44,459.94,900.6,459.94,899.58"/>
						<path class="st43" d="M455.38,899.58c0-1.03,0.51-1.86,1.14-1.86c0.63,0,1.14,0.83,1.14,1.86s-0.51,1.86-1.14,1.86
							C455.89,901.44,455.38,900.6,455.38,899.58"/>
						<path class="st43" d="M451.51,901.29v-3.42c0.14-0.1,0.29-0.15,0.45-0.15c0.63,0,1.14,0.83,1.14,1.86
							c0,1.03-0.51,1.86-1.14,1.86C451.8,901.44,451.65,901.38,451.51,901.29"/>
						<path class="st43" d="M464.51,892.15c0-0.42,0.09-0.81,0.23-1.11c0.21-0.45,0.54-0.74,0.91-0.74c0.16,0,0.31,0.05,0.45,0.15
							v3.42c-0.14,0.1-0.29,0.15-0.45,0.15C465.02,894.01,464.51,893.17,464.51,892.15"/>
						<path class="st43" d="M459.94,892.15c0-1.03,0.51-1.86,1.14-1.86c0.63,0,1.14,0.83,1.14,1.86s-0.51,1.86-1.14,1.86
							C460.45,894.01,459.94,893.17,459.94,892.15"/>
						<path class="st43" d="M455.38,892.15c0-1.03,0.51-1.86,1.14-1.86c0.63,0,1.14,0.83,1.14,1.86s-0.51,1.86-1.14,1.86
							C455.89,894.01,455.38,893.17,455.38,892.15"/>
						<path class="st43" d="M451.51,893.86v-3.42c0.14-0.1,0.29-0.15,0.45-0.15c0.37,0,0.7,0.29,0.91,0.74
							c0.14,0.31,0.23,0.7,0.23,1.11c0,1.03-0.51,1.86-1.14,1.86C451.8,894.01,451.65,893.95,451.51,893.86"/>
						<rect x="451.51" y="989.85" class="st44" width="14.59" height="4.46"/>
						<rect x="451.51" y="886.58" class="st44" width="14.59" height="4.46"/>
						<polygon class="st44" points="450.18,1005.94 456.46,994.3 458.8,989.97 461.14,994.3 467.43,1005.94 						"/>
						<g class="st45">
							<g>
								<defs>
									<rect id="SVGID_53_" x="450.18" y="886.58" width="8.62" height="119.36"/>
								</defs>
								<clipPath id="SVGID_54_">
									<use xlink:href="#SVGID_53_"  style="overflow:visible;"/>
								</clipPath>
								<polygon class="st46" points="456.46,994.3 451.51,994.3 451.51,886.58 458.8,886.58 458.8,1005.94 450.18,1005.94 								
									"/>
							</g>
						</g>
					</g>
				</g>
			</g>
		</g>
	</g>
	<g id="Outline">
		<g id="Outer">
			<path d="M652.5,227.75v289v2h2h12v160h-12h-2v2v54h-140v-54v-2h-2h-33h-2v2v126h-45h-2v2v36v2h2h52v52.17l-52.83,52.83
				l-83.84,0.49l-53.32-53.32v-52.17h52h2v-2v-36v-2h-2h-45v-126v-2h-2h-32h-2v2v54h-140v-54v-2h-2h-12v-160h12h2v-2v-289h140v289v2
				h2h245h2v-2v-289H652.5 M654.5,225.75h-144v291h-245v-291h-144v291h-14v164h14v56h144v-56h32v128h47v36h-54v55l54.5,54.5
				l85.5-0.5l54-54v-55h-54v-36h47v-128h33v56h144v-56h14v-164h-14V225.75L654.5,225.75z"/>
		</g>
		<g id="Middle">
			<path class="st47" d="M645.5,234.75v291h14v146h-14v56h-126v-56h-51v128h-47v54h54v42.27l-48.75,48.75l-78.04,0.46l-49.21-49.21
				v-42.27h54v-54h-47v-128h-50v56h-126v-56h-14v-146h14v-291h126v291h263v-291H645.5 M652.5,227.75h-7h-126h-7v7v284h-249v-284v-7
				h-7h-126h-7v7v284h-7h-7v7v146v7h7h7v49v7h7h126h7v-7v-49h36v121v7h7h40v40h-47h-7v7v42.27v2.9l2.05,2.05l49.21,49.21l2.07,2.07
				l2.92-0.02l78.04-0.46l2.88-0.02l2.03-2.03l48.75-48.75l2.05-2.05v-2.9v-42.27v-7h-7h-47v-40h40h7v-7v-121h37v49v7h7h126h7v-7
				v-49h7h7v-7v-146v-7h-7h-7v-284V227.75L652.5,227.75z"/>
		</g>
		<g id="Inner">
			<path d="M643.5,236.75v289v2h2h12v142h-12h-2v2v54h-122v-54v-2h-2h-51h-2v2v126h-45h-2v2v54v2h2h52v39.44l-47.58,47.58
				l-76.39,0.45l-48.03-48.03v-39.44h52h2v-2v-54v-2h-2h-45v-126v-2h-2h-50h-2v2v54h-122v-54v-2h-2h-12v-142h12h2v-2v-289h122v289v2
				h2h263h2v-2v-289H643.5 M645.5,234.75h-126v291h-263v-291h-126v291h-14v146h14v56h126v-56h50v128h47v54h-54v42.27l49.21,49.21
				l78.04-0.46l48.75-48.75v-42.27h-54v-54h47v-128h51v56h126v-56h14v-146h-14V234.75L645.5,234.75z"/>
		</g>
		<g id="Floor">
			<polygon class="st48" points="301.5,895.19 301.5,855.75 355.5,855.75 355.5,797.75 308.5,797.75 308.5,669.75 254.5,669.75 
				254.5,725.75 132.5,725.75 132.5,669.75 118.5,669.75 118.5,527.75 132.5,527.75 132.5,236.75 254.5,236.75 254.5,527.75 
				521.5,527.75 521.5,236.75 643.5,236.75 643.5,527.75 657.5,527.75 657.5,669.75 643.5,669.75 643.5,725.75 521.5,725.75 
				521.5,669.75 466.5,669.75 466.5,797.75 419.5,797.75 419.5,855.75 473.5,855.75 473.5,895.19 425.92,942.78 349.53,943.22 			
				"/>
		</g>
	</g>
	<rect x="286" y="488" class="st49" width="204" height="204"/>
	<g id="Room_Dividers">
		<line class="st50" x1="307" y1="672.25" x2="468.5" y2="672.25"/>
		<line class="st50" x1="353.5" y1="799.75" x2="421.5" y2="799.75"/>
		<line class="st50" x1="353.5" y1="853.75" x2="421.5" y2="853.75"/>
		<line class="st50" x1="256.5" y1="671.75" x2="256.5" y2="525.75"/>
		<line class="st50" x1="519.5" y1="671.75" x2="519.5" y2="525.75"/>
		<line class="st51" x1="521.25" y1="527.25" x2="644" y2="527.5"/>
		<line class="st51" x1="132.25" y1="527.25" x2="255" y2="527.5"/>
	</g>
	<g>
		<g>
			<path class="st52" d="M491.64,589.59c-0.08,0-0.15-0.01-0.22-0.01C491.49,589.59,491.56,589.59,491.64,589.59z"/>
			<path class="st52" d="M491.9,589.6c-0.09,0-0.17-0.01-0.26-0.01C491.72,589.6,491.81,589.6,491.9,589.6z"/>
			<path class="st52" d="M491.92,598.4c-0.18-1.42-0.27-2.91-0.27-4.43c0-1.5,0.09-2.96,0.26-4.36c0.08,0,0.15,0.01,0.23,0.01
				c0.01,0,0.02,0,0.03,0c0.05,0,0.09,0,0.14,0.01c0.07,0,0.14,0.01,0.2,0.01c0.13,0.01,0.25,0.01,0.39,0.02
				c0.1,0,0.21,0.01,0.31,0.01c0.1,0.01,0.21,0.01,0.32,0.01l0.15,0.01l0,0l0.48,0.02c2.78,0.13,4.93,0.32,6.4,0.56
				c3.57,0.58,6.13,2.99,6.42,3.26c0.11,0.11,0.18,0.26,0.18,0.42v0.13c0,0.16-0.06,0.31-0.18,0.42c-0.28,0.27-2.84,2.68-6.42,3.26
				c-1.46,0.24-3.61,0.42-6.37,0.56l-0.48,0.02l0,0l-0.16,0.01c-0.07,0-0.15,0.01-0.22,0.01c-0.07,0-0.15,0.01-0.22,0.01
				c-0.01,0-0.03,0-0.04,0c-0.1,0.01-0.21,0.01-0.31,0.01c-0.05,0-0.1,0-0.15,0.01c-0.1,0-0.2,0.01-0.29,0.01
				C492.19,598.39,492.05,598.39,491.92,598.4z"/>
			<path class="st52" d="M463.03,598.99l-0.16,0.16h-1.14l-0.16-0.16c-0.22-0.22-0.73-1.15-0.74-4.99c0-3.84,0.52-4.76,0.74-4.99
				l0.16-0.16h1.14l0.16,0.16c0.03,0.03,0.18,0.19,0.33,0.49c0.01,0.02,0.02,0.03,0.02,0.05h0.19c0.02-0.02,0.05-0.04,0.08-0.07
				c0.26-0.26,0.62-0.5,0.66-0.53l0.14-0.09l0.16,0l23.4,0.12h0.08l0.07,0.02l1.79,0.53v0c-0.17,1.43-0.26,2.93-0.26,4.45
				c0,1.54,0.09,3.06,0.27,4.51l-1.8,0.53l-0.07,0.02h-0.08l-23.4,0.12l-0.16,0l-0.14-0.09c-0.04-0.03-0.4-0.27-0.66-0.53
				c-0.03-0.03-0.06-0.06-0.08-0.07h-0.19c-0.01,0.02-0.02,0.03-0.02,0.05C463.22,598.79,463.06,598.96,463.03,598.99z"/>
			<path class="st53" d="M463.88,601.09l0.59,0l0.16,0l23.4-0.12h0.01l0.08,0l0.27,0l0.26-0.08l0.07-0.02l1.54-0.45
				c-0.12-0.63-0.21-1.28-0.29-1.94l-1.8,0.53l-0.07,0.02h-0.08l-23.4,0.12l-0.16,0l-0.14-0.09c-0.04-0.03-0.4-0.27-0.66-0.53
				c-0.03-0.03-0.06-0.06-0.08-0.07h-0.19c-0.01,0.02-0.02,0.03-0.02,0.05c-0.15,0.3-0.3,0.46-0.33,0.49l-0.16,0.16h-1.14
				l-0.16-0.16c-0.22-0.22-0.73-1.15-0.74-4.99c0-3.84,0.52-4.76,0.74-4.99l0.16-0.16h1.14v0l0.16,0.16
				c0.03,0.03,0.18,0.19,0.33,0.49c0.01,0.02,0.02,0.03,0.02,0.05h0.19c0.02-0.02,0.05-0.04,0.08-0.07c0.26-0.26,0.62-0.5,0.66-0.53
				l0.14-0.09h0.16l23.4,0.12l0.08,0l0.07,0.02l1.79,0.53v0c0.08-0.66,0.18-1.31,0.29-1.94l-1.53-0.45l-0.07-0.02l-0.26-0.08
				l-0.27,0l-0.08,0h-0.01l-23.4-0.12l-0.16,0l-0.6,0l-0.12,0.08l-0.07-0.08h-2.75l-0.57,0.57l-0.16,0.16
				c-0.64,0.64-1.3,1.9-1.31,6.36c0,4.46,0.66,5.72,1.31,6.36l0.16,0.16l0.57,0.57h2.75l0.08-0.08L463.88,601.09z M493.81,600.27
				l0.48-0.02c2.84-0.14,5.06-0.33,6.58-0.58c4.06-0.66,6.93-3.27,7.46-3.78c0.5-0.48,0.77-1.13,0.77-1.82v-0.13
				c0-0.69-0.27-1.34-0.77-1.82c-0.54-0.52-3.4-3.13-7.46-3.79c-1.54-0.25-3.77-0.44-6.61-0.58l-0.48-0.02l-1.56-0.08
				c-0.12,0.63-0.22,1.28-0.31,1.95c0.08,0,0.15,0.01,0.23,0.01c0.01,0,0.02,0,0.03,0c0.05,0,0.09,0,0.14,0.01
				c0.07,0,0.14,0.01,0.2,0.01c0.13,0.01,0.25,0.01,0.39,0.02c0.1,0,0.21,0.01,0.31,0.01c0.1,0,0.21,0.01,0.32,0.01l0.15,0.01l0,0
				l0.48,0.02c2.78,0.13,4.93,0.32,6.4,0.56c3.57,0.58,6.13,2.99,6.42,3.26c0.11,0.11,0.18,0.26,0.18,0.42v0.13
				c0,0.16-0.06,0.31-0.18,0.42c-0.28,0.27-2.84,2.68-6.42,3.26c-1.46,0.24-3.61,0.42-6.37,0.56l-0.48,0.02l0,0l-0.16,0.01
				c-0.07,0-0.15,0.01-0.22,0.01c-0.07,0-0.15,0.01-0.22,0.01c-0.01,0-0.03,0-0.04,0c-0.1,0.01-0.21,0.01-0.31,0.01
				c-0.05,0-0.1,0-0.15,0.01c-0.1,0-0.2,0.01-0.29,0.01c-0.14,0.01-0.27,0.01-0.4,0.01c0.08,0.67,0.19,1.32,0.31,1.95L493.81,600.27
				z"/>
			<path class="st53" d="M491.56,589.64c0.08,0,0.17,0.01,0.26,0.01C491.73,589.64,491.65,589.64,491.56,589.64z"/>
			<path class="st53" d="M490.27,600.42c-0.12-0.63-0.22-1.28-0.3-1.94c-0.18-1.46-0.27-2.97-0.27-4.51c0-1.52,0.09-3.01,0.26-4.45
				v0c0.08-0.66,0.18-1.31,0.29-1.94l0.12,0.04c0.34,0.01,0.96,0.02,1.73,0.05l0-0.02l0.11,0.01c-0.12,0.63-0.22,1.29-0.31,1.95
				c-0.17,1.4-0.27,2.87-0.27,4.36c0,1.52,0.09,3.01,0.27,4.43c0.08,0.66,0.19,1.31,0.31,1.95h-0.01l0-0.01
				c-0.83,0.03-1.48,0.04-1.84,0.05L490.27,600.42z"/>
			<path class="st53" d="M491.34,589.63c0.07,0,0.15,0,0.22,0.01C491.49,589.64,491.41,589.63,491.34,589.63z"/>
		</g>
		<g>
			<path class="st52" d="M491.64,571.69c-0.08,0-0.15-0.01-0.22-0.01C491.49,571.68,491.56,571.68,491.64,571.69z"/>
			<path class="st52" d="M491.9,571.69c-0.09,0-0.17-0.01-0.26-0.01C491.72,571.69,491.81,571.69,491.9,571.69z"/>
			<path class="st52" d="M491.92,580.49c-0.18-1.42-0.27-2.91-0.27-4.43c0-1.5,0.09-2.96,0.26-4.36c0.08,0,0.15,0.01,0.23,0.01
				c0.01,0,0.02,0,0.03,0c0.05,0,0.09,0,0.14,0.01c0.07,0,0.14,0.01,0.2,0.01c0.13,0.01,0.25,0.01,0.39,0.02
				c0.1,0,0.21,0.01,0.31,0.01c0.1,0.01,0.21,0.01,0.32,0.01l0.15,0.01l0,0l0.48,0.02c2.78,0.13,4.93,0.32,6.4,0.56
				c3.57,0.58,6.13,2.99,6.42,3.26c0.11,0.11,0.18,0.26,0.18,0.42v0.13c0,0.16-0.06,0.31-0.18,0.42c-0.28,0.27-2.84,2.68-6.42,3.26
				c-1.46,0.24-3.61,0.42-6.37,0.56l-0.48,0.02l0,0l-0.16,0.01c-0.07,0-0.15,0.01-0.22,0.01c-0.07,0-0.15,0.01-0.22,0.01
				c-0.01,0-0.03,0-0.04,0c-0.1,0.01-0.21,0.01-0.31,0.01c-0.05,0-0.1,0-0.15,0.01c-0.1,0-0.2,0.01-0.29,0.01
				C492.19,580.48,492.05,580.49,491.92,580.49z"/>
			<path class="st52" d="M463.03,581.08l-0.16,0.16h-1.14l-0.16-0.16c-0.22-0.22-0.73-1.15-0.74-4.99c0-3.84,0.52-4.76,0.74-4.99
				l0.16-0.16h1.14l0.16,0.16c0.03,0.03,0.18,0.19,0.33,0.49c0.01,0.02,0.02,0.03,0.02,0.05h0.19c0.02-0.02,0.05-0.04,0.08-0.07
				c0.26-0.26,0.62-0.5,0.66-0.53l0.14-0.09l0.16,0l23.4,0.12h0.08l0.07,0.02l1.79,0.53v0c-0.17,1.43-0.26,2.93-0.26,4.45
				c0,1.54,0.09,3.06,0.27,4.51l-1.8,0.53l-0.07,0.02h-0.08l-23.4,0.12l-0.16,0l-0.14-0.09c-0.04-0.03-0.4-0.27-0.66-0.53
				c-0.03-0.03-0.06-0.06-0.08-0.07h-0.19c-0.01,0.02-0.02,0.03-0.02,0.05C463.22,580.89,463.06,581.05,463.03,581.08z"/>
			<path class="st53" d="M463.88,583.18l0.59,0l0.16,0l23.4-0.12h0.01l0.08,0l0.27,0l0.26-0.08l0.07-0.02l1.54-0.45
				c-0.12-0.63-0.21-1.28-0.29-1.94l-1.8,0.53l-0.07,0.02h-0.08l-23.4,0.12l-0.16,0l-0.14-0.09c-0.04-0.03-0.4-0.27-0.66-0.53
				c-0.03-0.03-0.06-0.06-0.08-0.07h-0.19c-0.01,0.02-0.02,0.03-0.02,0.05c-0.15,0.29-0.3,0.46-0.33,0.49l-0.16,0.16h-1.14
				l-0.16-0.16c-0.22-0.22-0.73-1.15-0.74-4.99c0-3.84,0.52-4.76,0.74-4.99l0.16-0.16h1.14v0l0.16,0.16
				c0.03,0.03,0.18,0.19,0.33,0.49c0.01,0.02,0.02,0.03,0.02,0.05h0.19c0.02-0.02,0.05-0.04,0.08-0.07c0.26-0.26,0.62-0.5,0.66-0.53
				l0.14-0.09h0.16l23.4,0.12l0.08,0l0.07,0.02l1.79,0.53v0c0.08-0.66,0.18-1.31,0.29-1.94l-1.53-0.45l-0.07-0.02l-0.26-0.08
				l-0.27,0l-0.08,0h-0.01l-23.4-0.12l-0.16,0l-0.6,0l-0.12,0.08l-0.07-0.08h-2.75l-0.57,0.57l-0.16,0.16
				c-0.64,0.64-1.3,1.9-1.31,6.36c0,4.46,0.66,5.72,1.31,6.36l0.16,0.16l0.57,0.57h2.75l0.08-0.08L463.88,583.18z M493.81,582.36
				l0.48-0.02c2.84-0.14,5.06-0.33,6.58-0.58c4.06-0.66,6.93-3.27,7.46-3.78c0.5-0.48,0.77-1.13,0.77-1.82v-0.13
				c0-0.69-0.27-1.34-0.77-1.82c-0.54-0.52-3.4-3.13-7.46-3.79c-1.54-0.25-3.77-0.44-6.61-0.58l-0.48-0.02l-1.56-0.08
				c-0.12,0.63-0.22,1.28-0.31,1.95c0.08,0,0.15,0.01,0.23,0.01c0.01,0,0.02,0,0.03,0c0.05,0,0.09,0,0.14,0.01
				c0.07,0,0.14,0.01,0.2,0.01c0.13,0.01,0.25,0.01,0.39,0.02c0.1,0,0.21,0.01,0.31,0.01c0.1,0,0.21,0.01,0.32,0.01l0.15,0.01l0,0
				l0.48,0.02c2.78,0.13,4.93,0.32,6.4,0.56c3.57,0.58,6.13,2.99,6.42,3.26c0.11,0.11,0.18,0.26,0.18,0.42v0.13
				c0,0.16-0.06,0.31-0.18,0.42c-0.28,0.27-2.84,2.68-6.42,3.26c-1.46,0.24-3.61,0.42-6.37,0.56l-0.48,0.02l0,0l-0.16,0.01
				c-0.07,0-0.15,0.01-0.22,0.01c-0.07,0-0.15,0.01-0.22,0.01c-0.01,0-0.03,0-0.04,0c-0.1,0.01-0.21,0.01-0.31,0.01
				c-0.05,0-0.1,0-0.15,0.01c-0.1,0-0.2,0.01-0.29,0.01c-0.14,0.01-0.27,0.01-0.4,0.01c0.08,0.67,0.19,1.32,0.31,1.95L493.81,582.36
				z"/>
			<path class="st53" d="M491.56,571.73c0.08,0,0.17,0.01,0.26,0.01C491.73,571.74,491.65,571.73,491.56,571.73z"/>
			<path class="st53" d="M490.27,582.51c-0.12-0.63-0.22-1.28-0.3-1.94c-0.18-1.46-0.27-2.97-0.27-4.51c0-1.52,0.09-3.01,0.26-4.45
				v0c0.08-0.66,0.18-1.31,0.29-1.94l0.12,0.04c0.34,0.01,0.96,0.02,1.73,0.05l0-0.02l0.11,0.01c-0.12,0.63-0.22,1.29-0.31,1.95
				c-0.17,1.4-0.27,2.87-0.27,4.36c0,1.52,0.09,3.01,0.27,4.43c0.08,0.66,0.19,1.31,0.31,1.95h-0.01l0-0.01
				c-0.83,0.03-1.48,0.04-1.84,0.05L490.27,582.51z"/>
			<path class="st53" d="M491.34,571.72c0.07,0,0.15,0,0.22,0.01C491.49,571.73,491.41,571.73,491.34,571.72z"/>
		</g>
		<g>
			<path class="st52" d="M491.64,607.5c-0.08,0-0.15-0.01-0.22-0.01C491.49,607.5,491.56,607.5,491.64,607.5z"/>
			<path class="st52" d="M491.9,607.51c-0.09,0-0.17-0.01-0.26-0.01C491.72,607.5,491.81,607.51,491.9,607.51z"/>
			<path class="st52" d="M491.92,616.31c-0.18-1.42-0.27-2.91-0.27-4.43c0-1.5,0.09-2.96,0.26-4.36c0.08,0,0.15,0.01,0.23,0.01
				c0.01,0,0.02,0,0.03,0c0.05,0,0.09,0,0.14,0.01c0.07,0,0.14,0.01,0.2,0.01c0.13,0.01,0.25,0.01,0.39,0.02
				c0.1,0,0.21,0.01,0.31,0.01c0.1,0.01,0.21,0.01,0.32,0.01l0.15,0.01l0,0l0.48,0.02c2.78,0.13,4.93,0.32,6.4,0.56
				c3.57,0.58,6.13,2.99,6.42,3.26c0.11,0.11,0.18,0.26,0.18,0.42v0.13c0,0.16-0.06,0.31-0.18,0.42c-0.28,0.27-2.84,2.68-6.42,3.26
				c-1.46,0.24-3.61,0.42-6.37,0.56l-0.48,0.02l0,0l-0.16,0.01c-0.07,0-0.15,0.01-0.22,0.01c-0.07,0-0.15,0.01-0.22,0.01
				c-0.01,0-0.03,0-0.04,0c-0.1,0.01-0.21,0.01-0.31,0.01c-0.05,0-0.1,0-0.15,0.01c-0.1,0-0.2,0.01-0.29,0.01
				C492.19,616.3,492.05,616.3,491.92,616.31z"/>
			<path class="st52" d="M463.03,616.89l-0.16,0.16h-1.14l-0.16-0.16c-0.22-0.22-0.73-1.15-0.74-4.99c0-3.84,0.52-4.76,0.74-4.99
				l0.16-0.16h1.14l0.16,0.16c0.03,0.03,0.18,0.19,0.33,0.49c0.01,0.02,0.02,0.03,0.02,0.05h0.19c0.02-0.02,0.05-0.04,0.08-0.07
				c0.26-0.26,0.62-0.5,0.66-0.53l0.14-0.09l0.16,0l23.4,0.12h0.08l0.07,0.02l1.79,0.53v0c-0.17,1.43-0.26,2.93-0.26,4.45
				c0,1.54,0.09,3.06,0.27,4.51l-1.8,0.53l-0.07,0.02h-0.08l-23.4,0.12l-0.16,0l-0.14-0.09c-0.04-0.03-0.4-0.27-0.66-0.53
				c-0.03-0.03-0.06-0.06-0.08-0.07h-0.19c-0.01,0.02-0.02,0.03-0.02,0.05C463.22,616.7,463.06,616.86,463.03,616.89z"/>
			<path class="st53" d="M463.88,619l0.59,0l0.16,0l23.4-0.12h0.01l0.08,0l0.27,0l0.26-0.08l0.07-0.02l1.54-0.45
				c-0.12-0.63-0.21-1.28-0.29-1.94l-1.8,0.53l-0.07,0.02h-0.08l-23.4,0.12l-0.16,0l-0.14-0.09c-0.04-0.03-0.4-0.27-0.66-0.53
				c-0.03-0.03-0.06-0.06-0.08-0.07h-0.19c-0.01,0.02-0.02,0.03-0.02,0.05c-0.15,0.29-0.3,0.46-0.33,0.49l-0.16,0.16h-1.14
				l-0.16-0.16c-0.22-0.22-0.73-1.15-0.74-4.99c0-3.84,0.52-4.76,0.74-4.99l0.16-0.16h1.14v0l0.16,0.16
				c0.03,0.03,0.18,0.19,0.33,0.49c0.01,0.02,0.02,0.03,0.02,0.05h0.19c0.02-0.02,0.05-0.04,0.08-0.07c0.26-0.26,0.62-0.5,0.66-0.53
				l0.14-0.09h0.16l23.4,0.12l0.08,0l0.07,0.02l1.79,0.53v0c0.08-0.66,0.18-1.31,0.29-1.94l-1.53-0.45l-0.07-0.02l-0.26-0.08
				l-0.27,0l-0.08,0h-0.01l-23.4-0.12l-0.16,0l-0.6,0l-0.12,0.08l-0.07-0.08h-2.75l-0.57,0.57l-0.16,0.16
				c-0.64,0.64-1.3,1.9-1.31,6.36c0,4.46,0.66,5.72,1.31,6.36l0.16,0.16l0.57,0.57h2.75l0.08-0.08L463.88,619z M493.81,618.18
				l0.48-0.02c2.84-0.14,5.06-0.33,6.58-0.58c4.06-0.66,6.93-3.27,7.46-3.78c0.5-0.48,0.77-1.13,0.77-1.82v-0.13
				c0-0.69-0.27-1.34-0.77-1.82c-0.54-0.52-3.4-3.13-7.46-3.79c-1.54-0.25-3.77-0.44-6.61-0.58l-0.48-0.02l-1.56-0.08
				c-0.12,0.63-0.22,1.28-0.31,1.95c0.08,0,0.15,0.01,0.23,0.01c0.01,0,0.02,0,0.03,0c0.05,0,0.09,0,0.14,0.01
				c0.07,0,0.14,0.01,0.2,0.01c0.13,0.01,0.25,0.01,0.39,0.02c0.1,0,0.21,0.01,0.31,0.01c0.1,0,0.21,0.01,0.32,0.01l0.15,0.01l0,0
				l0.48,0.02c2.78,0.13,4.93,0.32,6.4,0.56c3.57,0.58,6.13,2.99,6.42,3.26c0.11,0.11,0.18,0.26,0.18,0.42v0.13
				c0,0.16-0.06,0.31-0.18,0.42c-0.28,0.27-2.84,2.68-6.42,3.26c-1.46,0.24-3.61,0.42-6.37,0.56l-0.48,0.02l0,0l-0.16,0.01
				c-0.07,0-0.15,0.01-0.22,0.01c-0.07,0-0.15,0.01-0.22,0.01c-0.01,0-0.03,0-0.04,0c-0.1,0.01-0.21,0.01-0.31,0.01
				c-0.05,0-0.1,0-0.15,0.01c-0.1,0-0.2,0.01-0.29,0.01c-0.14,0.01-0.27,0.01-0.4,0.01c0.08,0.67,0.19,1.32,0.31,1.95L493.81,618.18
				z"/>
			<path class="st53" d="M491.56,607.55c0.08,0,0.17,0.01,0.26,0.01C491.73,607.55,491.65,607.55,491.56,607.55z"/>
			<path class="st53" d="M490.27,618.32c-0.12-0.63-0.22-1.28-0.3-1.94c-0.18-1.46-0.27-2.97-0.27-4.51c0-1.52,0.09-3.01,0.26-4.45
				v0c0.08-0.66,0.18-1.31,0.29-1.94l0.12,0.04c0.34,0.01,0.96,0.02,1.73,0.05l0-0.02l0.11,0.01c-0.12,0.63-0.22,1.29-0.31,1.95
				c-0.17,1.4-0.27,2.87-0.27,4.36c0,1.52,0.09,3.01,0.27,4.43c0.08,0.66,0.19,1.31,0.31,1.95h-0.01l0-0.01
				c-0.83,0.03-1.48,0.04-1.84,0.05L490.27,618.32z"/>
			<path class="st53" d="M491.34,607.54c0.07,0,0.15,0,0.22,0.01C491.49,607.54,491.41,607.54,491.34,607.54z"/>
		</g>
	</g>
	<g>
		<g>
			<polygon class="st52" points="437.18,727.02 426.82,727.02 421.63,736 426.82,744.98 437.18,744.98 442.37,736 			"/>
			<path class="st53" d="M437.81,746.06h-11.62L420.38,736l5.81-10.06h11.62l5.81,10.06L437.81,746.06z M427.44,743.9h9.12l4.56-7.9
				l-4.56-7.9h-9.12l-4.56,7.9L427.44,743.9z"/>
		</g>
		<g>
			<polygon class="st52" points="437.18,709.08 426.82,709.08 421.63,718.06 426.82,727.04 437.18,727.04 442.37,718.06 			"/>
			<path class="st53" d="M437.81,728.12h-11.62l-5.81-10.06l5.81-10.06h11.62l5.81,10.06L437.81,728.12z M427.44,725.96h9.12
				l4.56-7.9l-4.56-7.9h-9.12l-4.56,7.9L427.44,725.96z"/>
		</g>
		<g>
			<polygon class="st52" points="411.28,718.05 406.1,727.03 411.28,736.01 421.65,736.01 426.83,727.03 421.65,718.05 			"/>
			<path class="st53" d="M422.27,737.09h-11.62l-5.81-10.06l5.81-10.06h11.62l5.81,10.06L422.27,737.09z M411.91,734.93h9.12
				l4.56-7.9l-4.56-7.9h-9.12l-4.56,7.9L411.91,734.93z"/>
		</g>
		<g>
			<polygon class="st52" points="406.1,744.97 411.28,753.95 421.65,753.95 426.83,744.97 421.65,735.99 411.28,735.99 			"/>
			<path class="st53" d="M422.27,755.03h-11.62l-5.81-10.06l5.81-10.06h11.62l5.81,10.06L422.27,755.03z M411.91,752.86h9.12
				l4.56-7.9l-4.56-7.9h-9.12l-4.56,7.9L411.91,752.86z"/>
		</g>
		<g>
			<polygon class="st52" points="426.82,762.92 437.18,762.92 442.37,753.94 437.18,744.96 426.82,744.96 421.63,753.94 			"/>
			<path class="st53" d="M437.81,764h-11.62l-5.81-10.06l5.81-10.06h11.62l5.81,10.06L437.81,764z M427.44,761.83h9.12l4.56-7.9
				l-4.56-7.9h-9.12l-4.56,7.9L427.44,761.83z"/>
		</g>
		<g>
			<polygon class="st52" points="452.72,753.95 457.9,744.97 452.72,735.99 442.35,735.99 437.17,744.97 442.35,753.95 			"/>
			<path class="st53" d="M453.34,755.03h-11.62l-5.81-10.06l5.81-10.06h11.62l5.81,10.06L453.34,755.03z M442.98,752.86h9.12
				l4.56-7.9l-4.56-7.9h-9.12l-4.56,7.9L442.98,752.86z"/>
		</g>
		<g>
			<polygon class="st52" points="457.9,727.03 452.72,718.05 442.35,718.05 437.17,727.03 442.35,736.01 452.72,736.01 			"/>
			<path class="st53" d="M453.34,737.09h-11.62l-5.81-10.06l5.81-10.06h11.62l5.81,10.06L453.34,737.09z M442.98,734.93h9.12
				l4.56-7.9l-4.56-7.9h-9.12l-4.56,7.9L442.98,734.93z"/>
		</g>
	</g>
	<g>
		<g>
			<defs>
				<rect id="SVGID_55_" x="185" y="557" width="62" height="62"/>
			</defs>
			<clipPath id="SVGID_56_">
				<use xlink:href="#SVGID_55_"  style="overflow:visible;"/>
			</clipPath>
			<g class="st54">
				<defs>
					<rect id="SVGID_57_" x="185" y="557" width="62" height="62"/>
				</defs>
				<clipPath id="SVGID_58_">
					<use xlink:href="#SVGID_57_"  style="overflow:visible;"/>
				</clipPath>
				<g class="st55">
					<g>
						<defs>
							<rect id="SVGID_59_" x="189.93" y="570.54" width="51.07" height="89.28"/>
						</defs>
						<clipPath id="SVGID_60_">
							<use xlink:href="#SVGID_59_"  style="overflow:visible;"/>
						</clipPath>
					</g>
				</g>
			</g>
			<g class="st54">
				<defs>
					<rect id="SVGID_61_" x="185" y="557" width="62" height="62"/>
				</defs>
				<clipPath id="SVGID_62_">
					<use xlink:href="#SVGID_61_"  style="overflow:visible;"/>
				</clipPath>
				<path class="st56" d="M187.46,588c0,0-0.96-17.43,8.29-16.71c4.12,0.32,11.35,2.22,18.09,4.22c8.4,2.5,16.05,5.16,16.05,5.16
					s1.68,0.6,2.28,0.6h8.29c0,0,0.24,0,0.48-0.12c0.24-0.12,1.68-1.08,1.68-1.08s0.36-0.24,0.72-0.24c0.36,0,0.66,0.3,0.66,0.3
					s0.48,0.36,0.48,1.2c0,0.84,0.06,6.67,0.06,6.67s-0.06,5.83-0.06,6.67c0,0.84-0.48,1.2-0.48,1.2s-0.3,0.3-0.66,0.3
					c-0.36,0-0.72-0.24-0.72-0.24s-1.44-0.96-1.68-1.08c-0.24-0.12-0.48-0.12-0.48-0.12h-8.29c-0.6,0-2.28,0.6-2.28,0.6
					s-7.65,2.66-16.05,5.16c-6.75,2-13.97,3.9-18.09,4.22C186.5,605.43,187.46,588,187.46,588"/>
				<path class="st56" d="M244.56,588c0,0-0.06,5.83-0.06,6.67c0,0.84-0.48,1.2-0.48,1.2s-0.3,0.3-0.66,0.3
					c-0.36,0-0.72-0.24-0.72-0.24s-1.44-0.96-1.68-1.08c-0.24-0.12-0.48-0.12-0.48-0.12h-8.29c-0.6,0-2.28,0.6-2.28,0.6
					s-7.65,2.66-16.05,5.16c-6.75,2-13.97,3.9-18.09,4.22c-7.66,0.6-8.32-11.25-8.32-15.34c0-0.85,0.03-1.37,0.03-1.37
					s-0.03-0.52-0.03-1.37c0-4.09,0.66-15.94,8.32-15.34c4.12,0.32,11.35,2.22,18.09,4.22c8.4,2.5,16.05,5.16,16.05,5.16
					s1.68,0.6,2.28,0.6h8.29c0,0,0.24,0,0.48-0.12c0.24-0.12,1.68-1.08,1.68-1.08s0.36-0.24,0.72-0.24c0.36,0,0.66,0.3,0.66,0.3
					s0.48,0.36,0.48,1.2C244.5,582.17,244.56,588,244.56,588 M247,588l0-0.03c0-0.06-0.06-5.83-0.06-6.65
					c0-1.42-0.66-2.48-1.32-3.04c-0.35-0.31-1.15-0.9-2.26-0.9c-0.99,0-1.78,0.45-2.07,0.65c-0.41,0.27-0.9,0.59-1.21,0.79h-7.81
					c-0.27-0.05-0.98-0.26-1.55-0.46l-0.01,0l-0.01,0c-0.08-0.03-7.8-2.71-16.15-5.19c-8.68-2.58-14.94-4.03-18.6-4.31
					c-2.41-0.19-4.58,0.55-6.3,2.13c-4.05,3.74-4.65,11.4-4.65,15.64c0,0.66,0.02,1.15,0.03,1.37c-0.01,0.22-0.03,0.7-0.03,1.37
					c0,4.23,0.6,11.89,4.65,15.64c1.71,1.58,3.89,2.32,6.3,2.13c3.66-0.28,9.92-1.74,18.6-4.31c8.35-2.48,16.08-5.16,16.16-5.19
					l0.01,0l0.01,0c0.57-0.2,1.28-0.41,1.55-0.46h7.81c0.31,0.2,0.8,0.52,1.21,0.79c0.29,0.2,1.08,0.65,2.07,0.65
					c1.11,0,1.91-0.59,2.26-0.9c0.66-0.56,1.32-1.62,1.32-3.04c0-0.82,0.06-6.59,0.06-6.65L247,588z"/>
				<path class="st57" d="M187.46,588c0,0-0.96-17.43,8.29-16.71c4.12,0.32,11.35,2.22,18.09,4.22v24.98
					c-6.75,2-13.97,3.9-18.09,4.22C186.5,605.43,187.46,588,187.46,588"/>
				<path class="st57" d="M224.79,585.18c-1.2,0-2.16-0.97-2.16-2.16s0.97-2.16,2.16-2.16c1.19,0,2.16,0.97,2.16,2.16
					S225.98,585.18,224.79,585.18"/>
				<path class="st57" d="M230.08,589.86c-0.86,0-1.56-0.7-1.56-1.56s0.7-1.56,1.56-1.56c0.86,0,1.56,0.7,1.56,1.56
					S230.94,589.86,230.08,589.86"/>
				<path class="st57" d="M218.9,591.19c-1.59,0-2.89-1.29-2.89-2.89c0-1.59,1.29-2.89,2.89-2.89c1.59,0,2.89,1.29,2.89,2.89
					C221.78,589.89,220.49,591.19,218.9,591.19"/>
			</g>
		</g>
	</g>
	<g>
		<g>
			<defs>
				<rect id="SVGID_63_" x="598" y="564" width="60" height="60"/>
			</defs>
			<clipPath id="SVGID_64_">
				<use xlink:href="#SVGID_63_"  style="overflow:visible;"/>
			</clipPath>
			<g class="st58">
				<defs>
					<rect id="SVGID_65_" x="598" y="564" width="60" height="60"/>
				</defs>
				<clipPath id="SVGID_66_">
					<use xlink:href="#SVGID_65_"  style="overflow:visible;"/>
				</clipPath>
				<path class="st59" d="M622.86,588.48l0.07,2.36c0.99,0.08,1.99,0.26,2.98,0.55l0.9-2.18l2.89,1.19l-0.9,2.18
					c0.9,0.49,1.74,1.06,2.5,1.71l1.71-1.63l2.16,2.26l-1.71,1.63c0.62,0.8,1.15,1.67,1.59,2.58l2.22-0.79l1.05,2.95l-2.22,0.79
					c0.24,0.98,0.37,1.98,0.41,3l2.35,0.18l-0.24,3.12l-2.35-0.18c-0.18,0.98-0.46,1.95-0.85,2.9l2.08,1.12l-1.49,2.75l-2.07-1.12
					c-0.58,0.84-1.24,1.62-1.96,2.31l1.44,1.87l-2.48,1.91l-1.44-1.87c-0.86,0.53-1.78,0.97-2.73,1.31l0.56,2.29l-3.04,0.74
					l-0.56-2.29c-0.64,0.09-1.28,0.13-1.93,0.13c-0.36,0-0.73-0.01-1.09-0.04l-0.42,2.32l-3.08-0.56l0.42-2.32
					c-0.48-0.14-0.96-0.31-1.43-0.5c-0.47-0.19-0.93-0.41-1.37-0.65l-1.33,1.95l-2.58-1.77l1.33-1.95c-0.78-0.66-1.48-1.4-2.09-2.19
					l-2.01,1.24l-1.64-2.66l2.01-1.24c-0.44-0.91-0.78-1.87-1.02-2.85l-2.34,0.31l-0.42-3.1l2.34-0.31c-0.03-1,0.05-2.01,0.23-3.02
					l-2.26-0.66l0.88-3l2.26,0.66c0.39-0.95,0.88-1.84,1.44-2.66l-1.8-1.53l2.03-2.38l1.8,1.53c0.74-0.7,1.54-1.32,2.4-1.85
					l-1.02-2.13l2.82-1.35l1.02,2.13c0.95-0.34,1.94-0.58,2.94-0.72l-0.07-2.36L622.86,588.48 M621.78,615.95
					c4.1,0,8-2.44,9.65-6.47c2.19-5.33-0.35-11.43-5.68-13.62c-1.3-0.53-2.64-0.79-3.97-0.79c-4.1,0-8,2.44-9.65,6.47
					c-2.19,5.33,0.35,11.43,5.68,13.62C619.11,615.7,620.45,615.95,621.78,615.95 M624.09,587.17l-1.27,0.04l-3.13,0.09l-1.27,0.04
					l0.04,1.27l0.04,1.26c-0.33,0.07-0.65,0.15-0.97,0.24l-0.55-1.14l-0.55-1.14l-1.14,0.55l-2.82,1.35l-1.14,0.55l0.55,1.14
					l0.55,1.14c-0.27,0.2-0.54,0.4-0.8,0.61l-0.96-0.82l-0.97-0.82l-0.82,0.97l-2.03,2.38l-0.82,0.97l0.97,0.82l0.96,0.82
					c-0.17,0.29-0.33,0.58-0.48,0.88l-1.21-0.36l-1.22-0.36l-0.36,1.22l-0.88,3l-0.36,1.22l1.22,0.36l1.21,0.35
					c-0.04,0.33-0.06,0.67-0.08,1l-1.25,0.17l-1.26,0.17l0.17,1.26l0.42,3.1l0.17,1.26l1.26-0.17l1.25-0.17
					c0.1,0.32,0.22,0.63,0.34,0.94l-1.07,0.66l-1.08,0.66l0.66,1.08l1.64,2.66l0.66,1.08l1.08-0.66l1.07-0.66
					c0.22,0.25,0.45,0.49,0.69,0.73l-0.71,1.04l-0.72,1.05l1.05,0.72l2.58,1.77l1.05,0.72l0.72-1.05l0.71-1.04
					c0.15,0.07,0.31,0.13,0.46,0.2c0.15,0.06,0.31,0.12,0.47,0.18l-0.23,1.24l-0.23,1.25l1.25,0.23l3.08,0.56l1.25,0.23l0.23-1.25
					l0.23-1.24c0.02,0,0.03,0,0.05,0c0.32,0,0.64-0.01,0.96-0.03l0.3,1.22l0.3,1.23l1.23-0.3l3.04-0.74l1.23-0.3l-0.3-1.23
					l-0.3-1.23c0.31-0.14,0.61-0.28,0.9-0.43l0.77,1l0.77,1l1-0.77l2.48-1.91l1-0.77l-0.77-1l-0.77-1c0.22-0.25,0.44-0.5,0.65-0.77
					l1.11,0.6l1.12,0.6l0.6-1.12l1.49-2.75l0.6-1.12l-1.12-0.6l-1.11-0.6c0.1-0.32,0.2-0.64,0.28-0.96l1.26,0.1l1.26,0.1l0.1-1.26
					l0.24-3.12l0.1-1.26l-1.26-0.1l-1.26-0.1c-0.03-0.33-0.08-0.66-0.13-0.99l1.19-0.42l1.19-0.43l-0.43-1.19l-1.05-2.95l-0.43-1.19
					l-1.19,0.43l-1.19,0.42c-0.17-0.29-0.34-0.58-0.53-0.85l0.91-0.87l0.92-0.87l-0.87-0.92l-2.16-2.26l-0.87-0.92l-0.92,0.87
					l-0.91,0.87c-0.27-0.2-0.55-0.39-0.83-0.57l0.48-1.16l0.48-1.17l-1.17-0.48l-2.89-1.19l-1.17-0.48l-0.48,1.17l-0.48,1.17
					c-0.33-0.07-0.66-0.13-0.99-0.18l-0.04-1.26L624.09,587.17z M621.78,614.68c-1.2,0-2.37-0.23-3.48-0.69
					c-2.26-0.93-4.03-2.69-4.97-4.95c-0.94-2.26-0.95-4.75-0.02-7.02c1.42-3.45,4.75-5.68,8.48-5.68c1.2,0,2.37,0.23,3.48,0.69
					c2.26,0.93,4.03,2.69,4.97,4.95c0.94,2.26,0.95,4.75,0.02,7.02C628.84,612.45,625.51,614.68,621.78,614.68"/>
				<path class="st59" d="M639.48,566.5v2.31c0.94,0.13,1.83,0.37,2.68,0.72l1.16-2l2.71,1.56l-1.16,2
					c0.73,0.57,1.39,1.23,1.96,1.96l2-1.16l1.56,2.71l-2,1.16c0.34,0.85,0.59,1.75,0.72,2.68h2.31v3.13h-2.31
					c-0.13,0.94-0.37,1.83-0.72,2.68l2,1.16l-1.56,2.71l-2-1.16c-0.57,0.73-1.23,1.39-1.96,1.96l1.16,2l-2.71,1.56l-1.16-2
					c-0.85,0.34-1.75,0.59-2.68,0.72v2.31h-3.13v-2.31c-0.94-0.13-1.83-0.37-2.68-0.72l-1.16,2l-2.71-1.56l1.16-2
					c-0.73-0.57-1.39-1.23-1.96-1.96l-2,1.16l-1.56-2.71l2-1.16c-0.34-0.85-0.59-1.75-0.72-2.68h-2.31v-3.13h2.31
					c0.13-0.94,0.37-1.83,0.72-2.68l-2-1.16l1.56-2.71l2,1.16c0.57-0.73,1.23-1.39,1.96-1.96l-1.16-2l2.71-1.56l1.16,2
					c0.85-0.34,1.75-0.59,2.68-0.72v-2.31H639.48 M637.92,588.02c4.43,0,8.01-3.59,8.01-8.01c0-4.43-3.59-8.01-8.01-8.01
					c-4.43,0-8.01,3.59-8.01,8.01C629.9,584.44,633.49,588.02,637.92,588.02 M640.75,565.23h-1.27h-3.13h-1.27v1.27v1.26
					c-0.28,0.07-0.56,0.14-0.84,0.23l-0.63-1.09l-0.63-1.1l-1.1,0.63l-2.71,1.56l-1.1,0.63l0.63,1.1l0.63,1.09
					c-0.21,0.2-0.42,0.4-0.62,0.62l-1.09-0.63l-1.1-0.63l-0.63,1.1l-1.56,2.71l-0.63,1.1l1.1,0.63l1.09,0.63
					c-0.08,0.28-0.16,0.56-0.23,0.84h-1.26h-1.27v1.27v3.13v1.27h1.27h1.26c0.07,0.28,0.14,0.56,0.23,0.84l-1.09,0.63l-1.1,0.63
					l0.63,1.1l1.56,2.71l0.63,1.1l1.1-0.63l1.09-0.63c0.2,0.21,0.4,0.42,0.62,0.62l-0.63,1.09l-0.63,1.1l1.1,0.63l2.71,1.56
					l1.1,0.63l0.63-1.1l0.63-1.09c0.28,0.08,0.56,0.16,0.84,0.23v1.26v1.27h1.27h3.13h1.27v-1.27v-1.26
					c0.28-0.07,0.56-0.14,0.84-0.23l0.63,1.09l0.63,1.1l1.1-0.63l2.71-1.56l1.1-0.63l-0.63-1.1l-0.63-1.09
					c0.21-0.2,0.42-0.4,0.62-0.62l1.09,0.63l1.1,0.63l0.63-1.1l1.56-2.71l0.63-1.1l-1.1-0.63l-1.09-0.63
					c0.08-0.28,0.16-0.56,0.23-0.84h1.26h1.27v-1.27v-3.13v-1.27h-1.27h-1.26c-0.07-0.28-0.14-0.56-0.23-0.84l1.09-0.63l1.1-0.63
					l-0.63-1.1l-1.56-2.71l-0.63-1.1l-1.1,0.63l-1.09,0.63c-0.2-0.21-0.4-0.42-0.62-0.62l0.63-1.09l0.63-1.1l-1.1-0.63l-2.71-1.56
					l-1.1-0.63l-0.63,1.1l-0.63,1.09c-0.28-0.08-0.56-0.16-0.84-0.23v-1.26V565.23z M637.92,586.76c-3.72,0-6.75-3.03-6.75-6.75
					s3.03-6.75,6.75-6.75s6.75,3.03,6.75,6.75S641.64,586.76,637.92,586.76"/>
				<path class="st59" d="M615.69,565.46l3.09,0.48l-0.34,2.17c0.82,0.32,1.57,0.78,2.21,1.35l1.77-1.3l1.85,2.53l-1.77,1.3
					c0.35,0.78,0.56,1.63,0.61,2.51l2.17,0.34l-0.48,3.09l-2.17-0.34c-0.32,0.82-0.78,1.57-1.35,2.21l1.3,1.77l-2.53,1.85l-1.3-1.77
					c-0.78,0.35-1.63,0.56-2.51,0.61l-0.34,2.17l-3.09-0.48l0.34-2.17c-0.82-0.32-1.57-0.78-2.21-1.35l-1.77,1.3l-1.85-2.53
					l1.77-1.3c-0.35-0.78-0.56-1.63-0.61-2.51l-2.17-0.34l0.48-3.09l2.17,0.34c0.32-0.82,0.78-1.57,1.35-2.21l-1.3-1.77l2.53-1.85
					l1.3,1.77c0.78-0.35,1.63-0.56,2.51-0.61L615.69,565.46 M615.8,580.13c2.52,0,4.73-1.83,5.12-4.39c0.44-2.83-1.5-5.49-4.33-5.93
					c-0.27-0.04-0.54-0.06-0.8-0.06c-2.52,0-4.73,1.83-5.12,4.39c-0.44,2.83,1.5,5.49,4.33,5.93
					C615.27,580.11,615.54,580.13,615.8,580.13 M614.63,564.01l-0.19,1.25l-0.19,1.22c-0.32,0.06-0.64,0.14-0.95,0.23l-0.73-1
					l-0.75-1.02l-1.02,0.75l-2.53,1.85l-1.02,0.75l0.75,1.02l0.73,1c-0.19,0.27-0.36,0.55-0.51,0.84l-1.22-0.19l-1.25-0.19
					l-0.19,1.25l-0.48,3.09l-0.19,1.25l1.25,0.19l1.22,0.19c0.06,0.32,0.14,0.64,0.23,0.95l-1,0.73l-1.02,0.75l0.75,1.02l1.85,2.53
					l0.75,1.02l1.02-0.75l1-0.73c0.27,0.19,0.55,0.36,0.84,0.51l-0.19,1.22l-0.19,1.25l1.25,0.19l3.09,0.48l1.25,0.19l0.19-1.25
					l0.19-1.22c0.32-0.06,0.64-0.14,0.95-0.23l0.73,1l0.75,1.02l1.02-0.75l2.53-1.85l1.02-0.75l-0.75-1.02l-0.73-1
					c0.19-0.27,0.36-0.55,0.51-0.83l1.22,0.19l1.25,0.19l0.19-1.25l0.48-3.09l0.19-1.25l-1.25-0.19l-1.22-0.19
					c-0.06-0.32-0.14-0.64-0.23-0.95l1-0.73l1.02-0.75l-0.75-1.02l-1.85-2.53l-0.75-1.02l-1.02,0.75l-1,0.73
					c-0.27-0.19-0.55-0.36-0.83-0.51l0.19-1.22l0.19-1.25l-1.25-0.19l-3.09-0.48L614.63,564.01z M615.8,578.87
					c-0.2,0-0.41-0.02-0.61-0.05c-1.04-0.16-1.95-0.72-2.57-1.56c-0.62-0.85-0.87-1.88-0.71-2.92c0.29-1.89,1.96-3.32,3.87-3.32
					c0.2,0,0.41,0.02,0.61,0.05c2.14,0.33,3.61,2.34,3.27,4.48C619.38,577.44,617.72,578.87,615.8,578.87"/>
				<path class="st60" d="M624.8,577.92l0.48-3.09l-2.17-0.34c-0.05-0.88-0.26-1.73-0.61-2.51l1.77-1.3l-1.85-2.53l-1.77,1.3
					c-0.64-0.57-1.39-1.03-2.21-1.35l0.34-2.17l-3.09-0.48l-0.34,2.17c-0.88,0.05-1.73,0.26-2.51,0.61l-1.3-1.77l-2.53,1.85
					l1.3,1.77c-0.57,0.64-1.03,1.39-1.35,2.21l-2.17-0.34l-0.48,3.09l2.17,0.34c0.05,0.88,0.26,1.73,0.61,2.51l-1.77,1.3l1.85,2.53
					l1.77-1.3c0.64,0.57,1.39,1.03,2.21,1.35l-0.34,2.17l3.09,0.48l0.34-2.17c0.88-0.05,1.73-0.26,2.51-0.61l1.3,1.77l2.53-1.85
					l-1.3-1.77c0.57-0.64,1.03-1.39,1.35-2.21L624.8,577.92z M615,580.07c-2.83-0.44-4.77-3.09-4.33-5.93
					c0.44-2.83,3.09-4.77,5.93-4.33c2.83,0.44,4.77,3.09,4.33,5.93C620.49,578.57,617.83,580.51,615,580.07"/>
				<path class="st60" d="M651.43,581.57v-3.13h-2.31c-0.13-0.94-0.37-1.83-0.72-2.68l2-1.16l-1.56-2.71l-2,1.16
					c-0.57-0.73-1.23-1.39-1.96-1.96l1.16-2l-2.71-1.56l-1.16,2c-0.85-0.34-1.75-0.59-2.68-0.72v-2.31h-3.13v2.31
					c-0.94,0.13-1.83,0.37-2.68,0.72l-1.16-2l-2.71,1.56l1.16,2c-0.73,0.57-1.39,1.23-1.96,1.96l-2-1.16l-1.56,2.71l2,1.16
					c-0.34,0.85-0.59,1.75-0.72,2.68h-2.31v3.13h2.31c0.13,0.94,0.37,1.83,0.72,2.68l-2,1.16l1.56,2.71l2-1.16
					c0.57,0.73,1.23,1.39,1.96,1.96l-1.16,2l2.71,1.56l1.16-2c0.85,0.34,1.75,0.59,2.68,0.72v2.31h3.13v-2.31
					c0.94-0.13,1.83-0.37,2.68-0.72l1.16,2l2.71-1.56l-1.16-2c0.73-0.57,1.39-1.23,1.96-1.96l2,1.16l1.56-2.71l-2-1.16
					c0.34-0.85,0.59-1.75,0.72-2.68H651.43z M637.92,588.02c-4.43,0-8.01-3.59-8.01-8.01c0-4.43,3.59-8.01,8.01-8.01
					c4.43,0,8.01,3.59,8.01,8.01C645.93,584.44,642.35,588.02,637.92,588.02"/>
				<path class="st60" d="M635.99,614.96l1.49-2.75l-2.08-1.12c0.39-0.95,0.67-1.93,0.85-2.9l2.35,0.18l0.24-3.12l-2.35-0.18
					c-0.03-1.02-0.17-2.02-0.41-3l2.22-0.79l-1.05-2.95l-2.22,0.79c-0.44-0.91-0.97-1.77-1.59-2.58l1.71-1.63l-2.16-2.26l-1.71,1.63
					c-0.76-0.64-1.6-1.22-2.5-1.71l0.9-2.18l-2.89-1.19l-0.9,2.18c-0.99-0.29-1.98-0.47-2.98-0.55l-0.07-2.36l-3.13,0.09l0.07,2.36
					c-1.01,0.14-1.99,0.38-2.94,0.72l-1.02-2.13l-2.82,1.35l1.02,2.13c-0.86,0.53-1.66,1.15-2.4,1.85l-1.8-1.53l-2.03,2.38l1.8,1.53
					c-0.56,0.82-1.04,1.71-1.44,2.66l-2.26-0.66l-0.88,3l2.26,0.66c-0.18,1.01-0.26,2.02-0.23,3.02l-2.34,0.31l0.42,3.1l2.34-0.31
					c0.24,0.98,0.58,1.94,1.02,2.85l-2.01,1.24l1.64,2.66l2.01-1.24c0.61,0.79,1.31,1.53,2.09,2.19l-1.33,1.95l2.58,1.77l1.33-1.95
					c0.44,0.24,0.9,0.45,1.37,0.65c0.47,0.19,0.95,0.36,1.43,0.5l-0.42,2.32l3.08,0.56l0.42-2.32c1.02,0.08,2.03,0.05,3.03-0.09
					l0.56,2.29l3.04-0.74l-0.56-2.29c0.95-0.34,1.87-0.78,2.73-1.31l1.44,1.87l2.48-1.91l-1.44-1.87c0.72-0.69,1.38-1.46,1.96-2.31
					L635.99,614.96z M617.81,615.16c-5.33-2.19-7.87-8.29-5.68-13.62c2.19-5.33,8.29-7.87,13.62-5.68
					c5.33,2.19,7.87,8.29,5.68,13.62C629.24,614.81,623.14,617.35,617.81,615.16"/>
			</g>
		</g>
	</g>
	<g>
		<g>
			<defs>
				<rect id="SVGID_67_" x="586" y="347" width="50" height="50"/>
			</defs>
			<clipPath id="SVGID_68_">
				<use xlink:href="#SVGID_67_"  style="overflow:visible;"/>
			</clipPath>
			<g class="st61">
				<defs>
					<rect id="SVGID_69_" x="586" y="347" width="50" height="50"/>
				</defs>
				<clipPath id="SVGID_70_">
					<use xlink:href="#SVGID_69_"  style="overflow:visible;"/>
				</clipPath>
				<path class="st62" d="M611.19,368.56c-1.95,0-3.53,1.58-3.53,3.53c0,1.95,1.58,3.53,3.53,3.53c1.95,0,3.53-1.58,3.53-3.53
					C614.72,370.14,613.14,368.56,611.19,368.56"/>
				<path class="st63" d="M611.19,368.56c1.95,0,3.53,1.58,3.53,3.53c0,1.95-1.58,3.53-3.53,3.53c-1.95,0-3.53-1.58-3.53-3.53
					C607.65,370.14,609.24,368.56,611.19,368.56 M611.19,367.54c-2.51,0-4.55,2.04-4.55,4.55c0,2.51,2.04,4.55,4.55,4.55
					c2.51,0,4.55-2.04,4.55-4.55C615.74,369.58,613.7,367.54,611.19,367.54"/>
				<path class="st62" d="M634.98,369.86h-5.34c-1.01-8.48-7.74-15.21-16.22-16.22v-5.62h-4.46v5.62
					c-8.48,1.01-15.21,7.74-16.22,16.22h-5.71v4.46h5.71c1.01,8.48,7.74,15.21,16.22,16.22v5.43h4.46v-5.43
					c8.48-1.01,15.21-7.74,16.22-16.22h5.34V369.86z M613.42,386.61v-8.75h-4.46v8.75c-6.32-0.96-11.32-5.96-12.29-12.29h8.47v-4.46
					h-8.47c0.96-6.32,5.96-11.32,12.29-12.29v8.57h4.46v-8.57c6.32,0.96,11.32,5.96,12.29,12.29h-8.85v4.46h8.85
					C624.74,380.65,619.74,385.64,613.42,386.61"/>
				<path class="st63" d="M613.42,348.02v5.62c8.48,1.01,15.21,7.74,16.22,16.22h5.34v4.46h-5.34c-1.01,8.48-7.74,15.21-16.22,16.22
					v5.43h-4.46v-5.43c-8.48-1.01-15.21-7.74-16.22-16.22h-5.71v-4.46h5.71c1.01-8.48,7.74-15.21,16.22-16.22v-5.62H613.42
					 M608.96,366.14v-8.57c-6.32,0.96-11.32,5.96-12.29,12.29h8.47v4.46h-8.47c0.96,6.32,5.96,11.32,12.29,12.29v-8.75h4.46v8.75
					c6.32-0.96,11.32-5.96,12.29-12.29h-8.85v-4.46h8.85c-0.96-6.32-5.96-11.32-12.29-12.29v8.57H608.96 M614.44,347h-1.02h-4.46
					h-1.02v1.02v4.73c-1.88,0.31-3.69,0.9-5.4,1.74c-1.93,0.95-3.68,2.21-5.21,3.74c-1.53,1.53-2.78,3.28-3.74,5.21
					c-0.84,1.71-1.43,3.52-1.74,5.4h-4.82H586v1.02v4.46v1.02h1.02h4.82c0.31,1.88,0.9,3.69,1.74,5.4c0.95,1.93,2.21,3.69,3.74,5.21
					c1.53,1.53,3.28,2.78,5.21,3.74c1.71,0.84,3.52,1.43,5.4,1.74v4.55V397h1.02h4.46h1.02v-1.02v-4.55c1.88-0.31,3.69-0.9,5.4-1.74
					c1.93-0.95,3.69-2.21,5.21-3.74c1.53-1.53,2.78-3.28,3.74-5.21c0.84-1.71,1.43-3.52,1.74-5.4h4.45H636v-1.02v-4.46v-1.02h-1.02
					h-4.45c-0.31-1.88-0.9-3.69-1.74-5.4c-0.95-1.93-2.21-3.69-3.74-5.21c-1.53-1.53-3.28-2.78-5.21-3.74
					c-1.71-0.84-3.52-1.43-5.4-1.74v-4.73V347z M607.93,367.17h1.02h4.46h1.02v-1.02v-7.32c4.9,1.21,8.81,5.12,10.02,10.02h-7.6
					h-1.02v1.02v4.46v1.02h1.02h7.6c-1.21,4.9-5.12,8.81-10.02,10.02v-7.51v-1.02h-1.02h-4.46h-1.02v1.02v7.51
					c-4.9-1.21-8.81-5.12-10.02-10.02h7.23h1.02v-1.02v-4.46v-1.02h-1.02h-7.23c1.21-4.9,5.12-8.81,10.02-10.02v7.32V367.17z"/>
			</g>
		</g>
	</g>
	<g>
		<g>
			<defs>
				<rect id="SVGID_71_" x="195" y="342" width="50.96" height="50.96"/>
			</defs>
			<clipPath id="SVGID_72_">
				<use xlink:href="#SVGID_71_"  style="overflow:visible;"/>
			</clipPath>
			<polygon class="st64" points="243.76,359.62 228.33,359.62 228.33,344.2 212.62,344.2 212.62,359.62 197.2,359.62 197.2,375.33 
				212.62,375.33 212.62,390.76 228.33,390.76 228.33,375.33 243.76,375.33 			"/>
			<path class="st65" d="M197.2,359.62h15.42V344.2h15.71v15.42h15.42v15.71h-15.42v15.42h-15.71v-15.42H197.2V359.62z M210.42,342
				v2.2v13.22H197.2H195v2.2v15.71v2.2h2.2h13.22v13.22v2.2h2.2h15.71h2.2v-2.2v-13.22h13.22h2.2v-20.12h-2.2h-13.22V344.2V342
				H210.42z"/>
		</g>
	</g>
</g>
</svg>
