<svg xmlns="http://www.w3.org/2000/svg" viewBox="0 0 600 600"><defs><style>.cls-1{fill:#4ba3c7;}</style></defs><title>CrewIndicatorDashed</title><g id="DashedOutline"><path class="cls-1" d="M379.91,560H220.09V546.93h-40V560a40,40,0,0,0,40,40H379.91a40,40,0,0,0,40-40V546.93h-40Z"/><path class="cls-1" d="M300,39.61a89.11,89.11,0,0,1,49.74,15.08H406a131.27,131.27,0,0,0-14.44-17.13A128.55,128.55,0,0,0,310,0H290a128.55,128.55,0,0,0-81.62,37.56A131.27,131.27,0,0,0,194,54.69h56.29A89.11,89.11,0,0,1,300,39.61Z"/><rect class="cls-1" x="180.1" y="437.54" width="39.99" height="54.69"/><rect class="cls-1" x="435.76" y="218.77" width="39.99" height="54.69"/><rect class="cls-1" x="379.91" y="437.54" width="39.99" height="54.69"/><rect class="cls-1" x="124.25" y="218.77" width="39.99" height="54.69"/><path class="cls-1" d="M436.09,328.16v54.69h39.63c0-.32,0-.64,0-1V328.16Z"/><path class="cls-1" d="M163.91,328.16H124.25v53.73c0,.32,0,.64,0,1h39.63Z"/><path class="cls-1" d="M424.92,164.08l.09-.3h-.17a129.76,129.76,0,0,0,4.69-34.63A132.1,132.1,0,0,0,428,109.39H387.35a90,90,0,0,1,2.19,19.76,89.07,89.07,0,0,1-7.08,34.93Z"/><path class="cls-1" d="M175.08,164.08h42.46a89.07,89.07,0,0,1-7.08-34.93,90,90,0,0,1,2.19-19.76H172a132.1,132.1,0,0,0-1.49,19.76,129.76,129.76,0,0,0,4.69,34.63H175Z"/></g></svg>