<svg id="Filled" xmlns="http://www.w3.org/2000/svg" viewBox="0 0 600 600"><defs><style>.cls-1{fill:#81d4fa;}.cls-2{fill:#4ba3c7;}</style></defs><title>CrewIndicatorFilled</title><g id="FilledLogo"><path class="cls-1" d="M349.47,204a89.48,89.48,0,1,0-98.94,0h-86.2V382h55.81V560H379.86V382h55.81V204Z"/><path class="cls-2" d="M300,40A89.49,89.49,0,0,1,349.47,204h86.2V382H379.86V560H220.14V382H164.33V204h86.2A89.49,89.49,0,0,1,300,40m0-40A129.52,129.52,0,0,0,175.24,164.06H164.33a40,40,0,0,0-40,40V382a40,40,0,0,0,40,40h15.84V560a40,40,0,0,0,40,40H379.86a40,40,0,0,0,40-40V422h15.84a40,40,0,0,0,40-40V204a40,40,0,0,0-40-40H424.76A129.47,129.47,0,0,0,300,0Z"/></g></svg>